<?xml version="1.0" encoding="UTF-8"?>
<svg id="Capa_2" data-name="Capa 2" xmlns="http://www.w3.org/2000/svg" xmlns:xlink="http://www.w3.org/1999/xlink" viewBox="0 0 422.83 303.75">
  <defs>
    <style>
      .cls-1, .cls-2, .cls-3, .cls-4 {
        fill: #fff;
      }

      .cls-5 {
        clip-path: url(#clippath-2);
      }

      .cls-6 {
        opacity: .2;
      }

      .cls-2 {
        opacity: .5;
      }

      .cls-7 {
        clip-path: url(#clippath-1);
      }

      .cls-8 {
        clip-path: url(#clippath-4);
      }

      .cls-3 {
        opacity: .7;
      }

      .cls-9, .cls-4, .cls-10, .cls-11 {
        stroke: #263238;
        stroke-linecap: round;
        stroke-linejoin: round;
      }

      .cls-9, .cls-12 {
        fill: #D94E5A;
      }

      .cls-13 {
        clip-path: url(#clippath);
      }

      .cls-10 {
        fill: none;
      }

      .cls-14 {
        clip-path: url(#clippath-3);
      }

      .cls-11, .cls-15 {
        fill: #263238;
      }

      .cls-16 {
        clip-path: url(#clippath-5);
      }
    </style>
    <clipPath id="clippath">
      <path class="cls-4" d="m164.16,162.52s-28.51,6.05-52.27,19.44c-23.76,13.39-42.33,24.19-42.33,29.37s-9.5,87.26-9.5,87.26h215.99s-21.17-45.36-24.62-64.8c-3.46-19.44-7.34-31.97-18.57-44.49-11.23-12.53-44.06-28.51-68.68-26.78Z"/>
    </clipPath>
    <clipPath id="clippath-1">
      <path class="cls-4" d="m154.66,165.54s-12.53,6.91-13.39,22.46c-.86,15.55,0,31.53-.86,40.17-.86,8.64-6.91,15.55-2.16,15.12,4.75-.43,15.55-17.71,19.44-17.71s5.18,8.21,6.91,10.8c1.73,2.59,7.79,3.68,7.79,3.68,0,0,5.6-6.7,5.6-8.86s-1.73-9.5,3.02-8.64c4.75.86,15.12,17.28,15.55,12.1.43-5.18-4.75-12.96-4.75-25.49s-6.05-27.21-14.69-36.29c-8.64-9.07-13.61-8.01-22.46-7.34Z"/>
    </clipPath>
    <clipPath id="clippath-2">
      <path class="cls-4" d="m158.26,165.65s-5.18,11.3-5.18,24.96,7.06,27.78,9.89,34.38c2.83,6.59,9.42,15.07,9.42,15.07,0,0-.47-17.42,3.77-25.9,4.24-8.48,8.01-14.6,8.01-14.6,0,0-5.18-5.18-12.72-16.95-7.53-11.77-13.19-16.95-13.19-16.95Z"/>
    </clipPath>
    <clipPath id="clippath-3">
      <path class="cls-4" d="m229.76,132.47s-1.31,19.35-3.4,26.15c-2.09,6.8-4.97,27.72-11.25,36.88-6.28,9.15-14.38,17-23.54,17.52s-21.45-15.69-28.51-26.15c-7.06-10.46-7.85-20.92-10.2-31.12-2.35-10.2-2.88-21.97.78-31.12s21.97-20.4,37.4-19.09c15.43,1.31,34.79,9.42,38.71,15.43,3.92,6.02,0,11.51,0,11.51Z"/>
    </clipPath>
    <clipPath id="clippath-4">
      <path class="cls-11" d="m159.41,94.29s-17,5.49-18.31,12.29c-1.31,6.8,7.32,30.6,7.06,33.48s-2.88,5.23,0,9.42c2.88,4.18,8.11,10.46,10.2,7.06,2.09-3.4-.78-8.37,2.62-10.46,3.4-2.09,8.11-5.49,5.49-9.94-2.62-4.45-1.31-10.98,4.18-11.77,5.49-.78,10.2-4.45,7.32-.26-2.88,4.18-11.25,14.38-6.8,15.17,4.45.78,21.97-10.98,21.97-10.98,0,0-6.02,12.03-2.88,12.82,3.14.78,27.72-15.43,27.72-15.43,0,0,11.77,15.43,14.12,14.38s.78-9.68.78-9.68c0,0,1.83,11.51,5.49,12.03,3.66.52,8.63-5.75,7.06-9.68-1.57-3.92-4.18-9.42-4.18-9.42,0,0,5.23-1.31,7.32-3.66s1.83-2.62-2.62-3.4c-4.45-.78-7.85-5.75-12.03-10.2-4.18-4.45-10.98-10.46-10.98-10.46,0,0,7.85,3.4,3.66-.52-4.18-3.92-26.42-12.82-38.45-12.82s-16.48,6.28-16.48,6.28c0,0,2.09-7.85-.26-6.8-2.35,1.05-4.97,7.32-4.97,7.32,0,0-5.49-1.57-8.37.26-2.88,1.83-3.66,3.66-1.31,3.66s3.92.52,3.92.52l-1.31.78Z"/>
    </clipPath>
    <clipPath id="clippath-5">
      <path class="cls-4" d="m159.41,162.02s-6.28-14.65-11.77-14.65-5.23,12.29-1.83,18.83c3.4,6.54,10.72,9.15,12.82,5.23"/>
    </clipPath>
  </defs>
  <g id="Background_Simple" data-name="Background Simple">
    <g>
      <path class="cls-12" d="m391.44,299.23c2.94-10.99,12.52-47.91,19.02-85.31,7.76-44.64,14.55-106.14-16.49-131.93-31.04-25.79-71.78,4.96-93.12-4.96-21.34-9.92-22.31-59.52-79.54-74.39-57.23-14.88-89.24,36.7-114.46,64.47-25.22,27.77-53.35,8.93-90.21,38.68-36.46,29.43-5.54,162.69,21.42,193.42h353.37Z"/>
      <path class="cls-3" d="m391.44,299.23c2.94-10.99,12.52-47.91,19.02-85.31,7.76-44.64,14.55-106.14-16.49-131.93-31.04-25.79-71.78,4.96-93.12-4.96-21.34-9.92-22.31-59.52-79.54-74.39-57.23-14.88-89.24,36.7-114.46,64.47-25.22,27.77-53.35,8.93-90.21,38.68-36.46,29.43-5.54,162.69,21.42,193.42h353.37Z"/>
    </g>
  </g>
  <g id="Codes">
    <g>
      <g>
        <path class="cls-1" d="m262.2,95.75h-3.24c-.44,0-.8-.36-.8-.8s.36-.8.8-.8h3.24c.44,0,.8.36.8.8s-.36.8-.8.8Zm.8,2.9c0-.44-.36-.8-.8-.8h-3.24c-.44,0-.8.36-.8.8s.36.8.8.8h3.24c.44,0,.8-.36.8-.8Zm0,3.7c0-.44-.36-.8-.8-.8h-3.24c-.44,0-.8.36-.8.8s.36.8.8.8h3.24c.44,0,.8-.36.8-.8Zm0,3.7c0-.44-.36-.8-.8-.8h-3.24c-.44,0-.8.36-.8.8s.36.8.8.8h3.24c.44,0,.8-.36.8-.8Zm0,3.7c0-.44-.36-.8-.8-.8h-3.24c-.44,0-.8.36-.8.8s.36.8.8.8h3.24c.44,0,.8-.36.8-.8Zm0,3.7c0-.44-.36-.8-.8-.8h-3.24c-.44,0-.8.36-.8.8s.36.8.8.8h3.24c.44,0,.8-.36.8-.8Zm0,3.7c0-.44-.36-.8-.8-.8h-3.24c-.44,0-.8.36-.8.8s.36.8.8.8h3.24c.44,0,.8-.36.8-.8Zm0,3.7c0-.44-.36-.8-.8-.8h-3.24c-.44,0-.8.36-.8.8s.36.8.8.8h3.24c.44,0,.8-.36.8-.8Zm12.11-25.89c0-.44-.36-.8-.8-.8h-8.49c-.44,0-.8.36-.8.8s.36.8.8.8h8.49c.44,0,.8-.36.8-.8Zm0,3.7c0-.44-.36-.8-.8-.8h-8.49c-.44,0-.8.36-.8.8s.36.8.8.8h8.49c.44,0,.8-.36.8-.8Zm0,3.7c0-.44-.36-.8-.8-.8h-8.49c-.44,0-.8.36-.8.8s.36.8.8.8h8.49c.44,0,.8-.36.8-.8Zm0,3.7c0-.44-.36-.8-.8-.8h-8.49c-.44,0-.8.36-.8.8s.36.8.8.8h8.49c.44,0,.8-.36.8-.8Zm0,3.7c0-.44-.36-.8-.8-.8h-8.49c-.44,0-.8.36-.8.8s.36.8.8.8h8.49c.44,0,.8-.36.8-.8Zm10.17,3.7c0-.44-.36-.8-.8-.8h-8.49c-.44,0-.8.36-.8.8s.36.8.8.8h8.49c.44,0,.8-.36.8-.8Zm0,3.7c0-.44-.36-.8-.8-.8h-8.49c-.44,0-.8.36-.8.8s.36.8.8.8h8.49c.44,0,.8-.36.8-.8Zm0,3.7c0-.44-.36-.8-.8-.8h-8.49c-.44,0-.8.36-.8.8s.36.8.8.8h8.49c.44,0,.8-.36.8-.8Zm-6.43-25.89c0-.51-.41-.92-.92-.92s-.92.41-.92.92.41.92.92.92.92-.41.92-.92Zm2.77,0c0-.51-.41-.92-.92-.92s-.92.41-.92.92.41.92.92.92.92-.41.92-.92Zm2.77,0c0-.51-.41-.92-.92-.92s-.92.41-.92.92.41.92.92.92.92-.41.92-.92Zm2.77,0c0-.51-.41-.92-.92-.92s-.92.41-.92.92.41.92.92.92.92-.41.92-.92Zm2.77,0c0-.51-.41-.92-.92-.92s-.92.41-.92.92.41.92.92.92.92-.41.92-.92Zm2.77,0c0-.51-.41-.92-.92-.92s-.92.41-.92.92.41.92.92.92.92-.41.92-.92Zm-13.87,7.4c0-.51-.41-.92-.92-.92s-.92.41-.92.92.41.92.92.92.92-.41.92-.92Zm2.77,0c0-.51-.41-.92-.92-.92s-.92.41-.92.92.41.92.92.92.92-.41.92-.92Zm2.77,0c0-.51-.41-.92-.92-.92s-.92.41-.92.92.41.92.92.92.92-.41.92-.92Zm2.77,0c0-.51-.41-.92-.92-.92s-.92.41-.92.92.41.92.92.92.92-.41.92-.92Zm2.77,0c0-.51-.41-.92-.92-.92s-.92.41-.92.92.41.92.92.92.92-.41.92-.92Zm2.77,0c0-.51-.41-.92-.92-.92s-.92.41-.92.92.41.92.92.92.92-.41.92-.92Zm-4.39,10.63c0-.51-.41-.92-.92-.92s-.92.41-.92.92.41.92.92.92.92-.41.92-.92Zm2.77,0c0-.51-.41-.92-.92-.92s-.92.41-.92.92.41.92.92.92.92-.41.92-.92Zm2.77,0c0-.51-.41-.92-.92-.92s-.92.41-.92.92.41.92.92.92.92-.41.92-.92Zm2.77,0c0-.51-.41-.92-.92-.92s-.92.41-.92.92.41.92.92.92.92-.41.92-.92Zm2.77,0c0-.51-.41-.92-.92-.92s-.92.41-.92.92.41.92.92.92.92-.41.92-.92Zm2.77,0c0-.51-.41-.92-.92-.92s-.92.41-.92.92.41.92.92.92.92-.41.92-.92Zm-13.87,7.63c0-.51-.41-.92-.92-.92s-.92.41-.92.92.41.92.92.92.92-.41.92-.92Zm2.77,0c0-.51-.41-.92-.92-.92s-.92.41-.92.92.41.92.92.92.92-.41.92-.92Zm2.77,0c0-.51-.41-.92-.92-.92s-.92.41-.92.92.41.92.92.92.92-.41.92-.92Zm2.77,0c0-.51-.41-.92-.92-.92s-.92.41-.92.92.41.92.92.92.92-.41.92-.92Zm2.77,0c0-.51-.41-.92-.92-.92s-.92.41-.92.92.41.92.92.92.92-.41.92-.92Zm2.77,0c0-.51-.41-.92-.92-.92s-.92.41-.92.92.41.92.92.92.92-.41.92-.92Z"/>
        <path class="cls-1" d="m262.2,125.35h-3.24c-.44,0-.8-.36-.8-.8s.36-.8.8-.8h3.24c.44,0,.8.36.8.8s-.36.8-.8.8Zm.8,2.9c0-.44-.36-.8-.8-.8h-3.24c-.44,0-.8.36-.8.8s.36.8.8.8h3.24c.44,0,.8-.36.8-.8Zm0,3.7c0-.44-.36-.8-.8-.8h-3.24c-.44,0-.8.36-.8.8s.36.8.8.8h3.24c.44,0,.8-.36.8-.8Zm0,3.7c0-.44-.36-.8-.8-.8h-3.24c-.44,0-.8.36-.8.8s.36.8.8.8h3.24c.44,0,.8-.36.8-.8Zm0,3.7c0-.44-.36-.8-.8-.8h-3.24c-.44,0-.8.36-.8.8s.36.8.8.8h3.24c.44,0,.8-.36.8-.8Zm0,3.7c0-.44-.36-.8-.8-.8h-3.24c-.44,0-.8.36-.8.8s.36.8.8.8h3.24c.44,0,.8-.36.8-.8Zm0,3.7c0-.44-.36-.8-.8-.8h-3.24c-.44,0-.8.36-.8.8s.36.8.8.8h3.24c.44,0,.8-.36.8-.8Zm0,3.7c0-.44-.36-.8-.8-.8h-3.24c-.44,0-.8.36-.8.8s.36.8.8.8h3.24c.44,0,.8-.36.8-.8Zm12.11-25.89c0-.44-.36-.8-.8-.8h-8.49c-.44,0-.8.36-.8.8s.36.8.8.8h8.49c.44,0,.8-.36.8-.8Zm0,3.7c0-.44-.36-.8-.8-.8h-8.49c-.44,0-.8.36-.8.8s.36.8.8.8h8.49c.44,0,.8-.36.8-.8Zm0,3.7c0-.44-.36-.8-.8-.8h-8.49c-.44,0-.8.36-.8.8s.36.8.8.8h8.49c.44,0,.8-.36.8-.8Zm0,3.7c0-.44-.36-.8-.8-.8h-8.49c-.44,0-.8.36-.8.8s.36.8.8.8h8.49c.44,0,.8-.36.8-.8Zm0,3.7c0-.44-.36-.8-.8-.8h-8.49c-.44,0-.8.36-.8.8s.36.8.8.8h8.49c.44,0,.8-.36.8-.8Zm10.17,3.7c0-.44-.36-.8-.8-.8h-8.49c-.44,0-.8.36-.8.8s.36.8.8.8h8.49c.44,0,.8-.36.8-.8Zm0,3.7c0-.44-.36-.8-.8-.8h-8.49c-.44,0-.8.36-.8.8s.36.8.8.8h8.49c.44,0,.8-.36.8-.8Zm0,3.7c0-.44-.36-.8-.8-.8h-8.49c-.44,0-.8.36-.8.8s.36.8.8.8h8.49c.44,0,.8-.36.8-.8Zm-6.43-25.89c0-.51-.41-.92-.92-.92s-.92.41-.92.92.41.92.92.92.92-.41.92-.92Zm2.77,0c0-.51-.41-.92-.92-.92s-.92.41-.92.92.41.92.92.92.92-.41.92-.92Zm2.77,0c0-.51-.41-.92-.92-.92s-.92.41-.92.92.41.92.92.92.92-.41.92-.92Zm2.77,0c0-.51-.41-.92-.92-.92s-.92.41-.92.92.41.92.92.92.92-.41.92-.92Zm2.77,0c0-.51-.41-.92-.92-.92s-.92.41-.92.92.41.92.92.92.92-.41.92-.92Zm2.77,0c0-.51-.41-.92-.92-.92s-.92.41-.92.92.41.92.92.92.92-.41.92-.92Zm-13.87,7.4c0-.51-.41-.92-.92-.92s-.92.41-.92.92.41.92.92.92.92-.41.92-.92Zm2.77,0c0-.51-.41-.92-.92-.92s-.92.41-.92.92.41.92.92.92.92-.41.92-.92Zm2.77,0c0-.51-.41-.92-.92-.92s-.92.41-.92.92.41.92.92.92.92-.41.92-.92Zm2.77,0c0-.51-.41-.92-.92-.92s-.92.41-.92.92.41.92.92.92.92-.41.92-.92Zm2.77,0c0-.51-.41-.92-.92-.92s-.92.41-.92.92.41.92.92.92.92-.41.92-.92Zm2.77,0c0-.51-.41-.92-.92-.92s-.92.41-.92.92.41.92.92.92.92-.41.92-.92Zm-4.39,10.63c0-.51-.41-.92-.92-.92s-.92.41-.92.92.41.92.92.92.92-.41.92-.92Zm2.77,0c0-.51-.41-.92-.92-.92s-.92.41-.92.92.41.92.92.92.92-.41.92-.92Zm2.77,0c0-.51-.41-.92-.92-.92s-.92.41-.92.92.41.92.92.92.92-.41.92-.92Zm2.77,0c0-.51-.41-.92-.92-.92s-.92.41-.92.92.41.92.92.92.92-.41.92-.92Zm2.77,0c0-.51-.41-.92-.92-.92s-.92.41-.92.92.41.92.92.92.92-.41.92-.92Zm2.77,0c0-.51-.41-.92-.92-.92s-.92.41-.92.92.41.92.92.92.92-.41.92-.92Zm-13.87,7.63c0-.51-.41-.92-.92-.92s-.92.41-.92.92.41.92.92.92.92-.41.92-.92Zm2.77,0c0-.51-.41-.92-.92-.92s-.92.41-.92.92.41.92.92.92.92-.41.92-.92Zm2.77,0c0-.51-.41-.92-.92-.92s-.92.41-.92.92.41.92.92.92.92-.41.92-.92Zm2.77,0c0-.51-.41-.92-.92-.92s-.92.41-.92.92.41.92.92.92.92-.41.92-.92Zm2.77,0c0-.51-.41-.92-.92-.92s-.92.41-.92.92.41.92.92.92.92-.41.92-.92Zm2.77,0c0-.51-.41-.92-.92-.92s-.92.41-.92.92.41.92.92.92.92-.41.92-.92Z"/>
        <path class="cls-1" d="m262.2,155.66h-3.24c-.44,0-.8-.36-.8-.8s.36-.8.8-.8h3.24c.44,0,.8.36.8.8s-.36.8-.8.8Zm.8,2.9c0-.44-.36-.8-.8-.8h-3.24c-.44,0-.8.36-.8.8s.36.8.8.8h3.24c.44,0,.8-.36.8-.8Zm0,3.7c0-.44-.36-.8-.8-.8h-3.24c-.44,0-.8.36-.8.8s.36.8.8.8h3.24c.44,0,.8-.36.8-.8Zm0,3.7c0-.44-.36-.8-.8-.8h-3.24c-.44,0-.8.36-.8.8s.36.8.8.8h3.24c.44,0,.8-.36.8-.8Zm0,3.7c0-.44-.36-.8-.8-.8h-3.24c-.44,0-.8.36-.8.8s.36.8.8.8h3.24c.44,0,.8-.36.8-.8Zm0,3.7c0-.44-.36-.8-.8-.8h-3.24c-.44,0-.8.36-.8.8s.36.8.8.8h3.24c.44,0,.8-.36.8-.8Zm0,3.7c0-.44-.36-.8-.8-.8h-3.24c-.44,0-.8.36-.8.8s.36.8.8.8h3.24c.44,0,.8-.36.8-.8Zm0,3.7c0-.44-.36-.8-.8-.8h-3.24c-.44,0-.8.36-.8.8s.36.8.8.8h3.24c.44,0,.8-.36.8-.8Zm12.11-25.89c0-.44-.36-.8-.8-.8h-8.49c-.44,0-.8.36-.8.8s.36.8.8.8h8.49c.44,0,.8-.36.8-.8Zm0,3.7c0-.44-.36-.8-.8-.8h-8.49c-.44,0-.8.36-.8.8s.36.8.8.8h8.49c.44,0,.8-.36.8-.8Zm0,3.7c0-.44-.36-.8-.8-.8h-8.49c-.44,0-.8.36-.8.8s.36.8.8.8h8.49c.44,0,.8-.36.8-.8Zm0,3.7c0-.44-.36-.8-.8-.8h-8.49c-.44,0-.8.36-.8.8s.36.8.8.8h8.49c.44,0,.8-.36.8-.8Zm0,3.7c0-.44-.36-.8-.8-.8h-8.49c-.44,0-.8.36-.8.8s.36.8.8.8h8.49c.44,0,.8-.36.8-.8Zm10.17,3.7c0-.44-.36-.8-.8-.8h-8.49c-.44,0-.8.36-.8.8s.36.8.8.8h8.49c.44,0,.8-.36.8-.8Zm0,3.7c0-.44-.36-.8-.8-.8h-8.49c-.44,0-.8.36-.8.8s.36.8.8.8h8.49c.44,0,.8-.36.8-.8Zm0,3.7c0-.44-.36-.8-.8-.8h-8.49c-.44,0-.8.36-.8.8s.36.8.8.8h8.49c.44,0,.8-.36.8-.8Zm-6.43-25.89c0-.51-.41-.92-.92-.92s-.92.41-.92.92.41.92.92.92.92-.41.92-.92Zm2.77,0c0-.51-.41-.92-.92-.92s-.92.41-.92.92.41.92.92.92.92-.41.92-.92Zm2.77,0c0-.51-.41-.92-.92-.92s-.92.41-.92.92.41.92.92.92.92-.41.92-.92Zm2.77,0c0-.51-.41-.92-.92-.92s-.92.41-.92.92.41.92.92.92.92-.41.92-.92Zm2.77,0c0-.51-.41-.92-.92-.92s-.92.41-.92.92.41.92.92.92.92-.41.92-.92Zm2.77,0c0-.51-.41-.92-.92-.92s-.92.41-.92.92.41.92.92.92.92-.41.92-.92Zm-13.87,7.4c0-.51-.41-.92-.92-.92s-.92.41-.92.92.41.92.92.92.92-.41.92-.92Zm2.77,0c0-.51-.41-.92-.92-.92s-.92.41-.92.92.41.92.92.92.92-.41.92-.92Zm2.77,0c0-.51-.41-.92-.92-.92s-.92.41-.92.92.41.92.92.92.92-.41.92-.92Zm2.77,0c0-.51-.41-.92-.92-.92s-.92.41-.92.92.41.92.92.92.92-.41.92-.92Zm2.77,0c0-.51-.41-.92-.92-.92s-.92.41-.92.92.41.92.92.92.92-.41.92-.92Zm2.77,0c0-.51-.41-.92-.92-.92s-.92.41-.92.92.41.92.92.92.92-.41.92-.92Zm-4.39,10.63c0-.51-.41-.92-.92-.92s-.92.41-.92.92.41.92.92.92.92-.41.92-.92Zm2.77,0c0-.51-.41-.92-.92-.92s-.92.41-.92.92.41.92.92.92.92-.41.92-.92Zm2.77,0c0-.51-.41-.92-.92-.92s-.92.41-.92.92.41.92.92.92.92-.41.92-.92Zm2.77,0c0-.51-.41-.92-.92-.92s-.92.41-.92.92.41.92.92.92.92-.41.92-.92Zm2.77,0c0-.51-.41-.92-.92-.92s-.92.41-.92.92.41.92.92.92.92-.41.92-.92Zm2.77,0c0-.51-.41-.92-.92-.92s-.92.41-.92.92.41.92.92.92.92-.41.92-.92Zm-13.87,7.63c0-.51-.41-.92-.92-.92s-.92.41-.92.92.41.92.92.92.92-.41.92-.92Zm2.77,0c0-.51-.41-.92-.92-.92s-.92.41-.92.92.41.92.92.92.92-.41.92-.92Zm2.77,0c0-.51-.41-.92-.92-.92s-.92.41-.92.92.41.92.92.92.92-.41.92-.92Zm2.77,0c0-.51-.41-.92-.92-.92s-.92.41-.92.92.41.92.92.92.92-.41.92-.92Zm2.77,0c0-.51-.41-.92-.92-.92s-.92.41-.92.92.41.92.92.92.92-.41.92-.92Zm2.77,0c0-.51-.41-.92-.92-.92s-.92.41-.92.92.41.92.92.92.92-.41.92-.92Z"/>
        <path class="cls-1" d="m311.88,95.75h-3.24c-.44,0-.8-.36-.8-.8s.36-.8.8-.8h3.24c.44,0,.8.36.8.8s-.36.8-.8.8Zm.8,2.9c0-.44-.36-.8-.8-.8h-3.24c-.44,0-.8.36-.8.8s.36.8.8.8h3.24c.44,0,.8-.36.8-.8Zm0,3.7c0-.44-.36-.8-.8-.8h-3.24c-.44,0-.8.36-.8.8s.36.8.8.8h3.24c.44,0,.8-.36.8-.8Zm0,3.7c0-.44-.36-.8-.8-.8h-3.24c-.44,0-.8.36-.8.8s.36.8.8.8h3.24c.44,0,.8-.36.8-.8Zm0,3.7c0-.44-.36-.8-.8-.8h-3.24c-.44,0-.8.36-.8.8s.36.8.8.8h3.24c.44,0,.8-.36.8-.8Zm0,3.7c0-.44-.36-.8-.8-.8h-3.24c-.44,0-.8.36-.8.8s.36.8.8.8h3.24c.44,0,.8-.36.8-.8Zm0,3.7c0-.44-.36-.8-.8-.8h-3.24c-.44,0-.8.36-.8.8s.36.8.8.8h3.24c.44,0,.8-.36.8-.8Zm0,3.7c0-.44-.36-.8-.8-.8h-3.24c-.44,0-.8.36-.8.8s.36.8.8.8h3.24c.44,0,.8-.36.8-.8Zm12.11-25.89c0-.44-.36-.8-.8-.8h-8.49c-.44,0-.8.36-.8.8s.36.8.8.8h8.49c.44,0,.8-.36.8-.8Zm0,3.7c0-.44-.36-.8-.8-.8h-8.49c-.44,0-.8.36-.8.8s.36.8.8.8h8.49c.44,0,.8-.36.8-.8Zm0,3.7c0-.44-.36-.8-.8-.8h-8.49c-.44,0-.8.36-.8.8s.36.8.8.8h8.49c.44,0,.8-.36.8-.8Zm0,3.7c0-.44-.36-.8-.8-.8h-8.49c-.44,0-.8.36-.8.8s.36.8.8.8h8.49c.44,0,.8-.36.8-.8Zm0,3.7c0-.44-.36-.8-.8-.8h-8.49c-.44,0-.8.36-.8.8s.36.8.8.8h8.49c.44,0,.8-.36.8-.8Zm10.17,3.7c0-.44-.36-.8-.8-.8h-8.49c-.44,0-.8.36-.8.8s.36.8.8.8h8.49c.44,0,.8-.36.8-.8Zm0,3.7c0-.44-.36-.8-.8-.8h-8.49c-.44,0-.8.36-.8.8s.36.8.8.8h8.49c.44,0,.8-.36.8-.8Zm0,3.7c0-.44-.36-.8-.8-.8h-8.49c-.44,0-.8.36-.8.8s.36.8.8.8h8.49c.44,0,.8-.36.8-.8Zm-6.43-25.89c0-.51-.41-.92-.92-.92s-.92.41-.92.92.41.92.92.92.92-.41.92-.92Zm2.77,0c0-.51-.41-.92-.92-.92s-.92.41-.92.92.41.92.92.92.92-.41.92-.92Zm2.77,0c0-.51-.41-.92-.92-.92s-.92.41-.92.92.41.92.92.92.92-.41.92-.92Zm2.77,0c0-.51-.41-.92-.92-.92s-.92.41-.92.92.41.92.92.92.92-.41.92-.92Zm2.77,0c0-.51-.41-.92-.92-.92s-.92.41-.92.92.41.92.92.92.92-.41.92-.92Zm2.77,0c0-.51-.41-.92-.92-.92s-.92.41-.92.92.41.92.92.92.92-.41.92-.92Zm-13.87,7.4c0-.51-.41-.92-.92-.92s-.92.41-.92.92.41.92.92.92.92-.41.92-.92Zm2.77,0c0-.51-.41-.92-.92-.92s-.92.41-.92.92.41.92.92.92.92-.41.92-.92Zm2.77,0c0-.51-.41-.92-.92-.92s-.92.41-.92.92.41.92.92.92.92-.41.92-.92Zm2.77,0c0-.51-.41-.92-.92-.92s-.92.41-.92.92.41.92.92.92.92-.41.92-.92Zm2.77,0c0-.51-.41-.92-.92-.92s-.92.41-.92.92.41.92.92.92.92-.41.92-.92Zm2.77,0c0-.51-.41-.92-.92-.92s-.92.41-.92.92.41.92.92.92.92-.41.92-.92Zm-4.39,10.63c0-.51-.41-.92-.92-.92s-.92.41-.92.92.41.92.92.92.92-.41.92-.92Zm2.77,0c0-.51-.41-.92-.92-.92s-.92.41-.92.92.41.92.92.92.92-.41.92-.92Zm2.77,0c0-.51-.41-.92-.92-.92s-.92.41-.92.92.41.92.92.92.92-.41.92-.92Zm2.77,0c0-.51-.41-.92-.92-.92s-.92.41-.92.92.41.92.92.92.92-.41.92-.92Zm2.77,0c0-.51-.41-.92-.92-.92s-.92.41-.92.92.41.92.92.92.92-.41.92-.92Zm2.77,0c0-.51-.41-.92-.92-.92s-.92.41-.92.92.41.92.92.92.92-.41.92-.92Zm-13.87,7.63c0-.51-.41-.92-.92-.92s-.92.41-.92.92.41.92.92.92.92-.41.92-.92Zm2.77,0c0-.51-.41-.92-.92-.92s-.92.41-.92.92.41.92.92.92.92-.41.92-.92Zm2.77,0c0-.51-.41-.92-.92-.92s-.92.41-.92.92.41.92.92.92.92-.41.92-.92Zm2.77,0c0-.51-.41-.92-.92-.92s-.92.41-.92.92.41.92.92.92.92-.41.92-.92Zm2.77,0c0-.51-.41-.92-.92-.92s-.92.41-.92.92.41.92.92.92.92-.41.92-.92Zm2.77,0c0-.51-.41-.92-.92-.92s-.92.41-.92.92.41.92.92.92.92-.41.92-.92Z"/>
        <path class="cls-1" d="m311.88,126.06h-3.24c-.44,0-.8-.36-.8-.8s.36-.8.8-.8h3.24c.44,0,.8.36.8.8s-.36.8-.8.8Zm.8,2.9c0-.44-.36-.8-.8-.8h-3.24c-.44,0-.8.36-.8.8s.36.8.8.8h3.24c.44,0,.8-.36.8-.8Zm0,3.7c0-.44-.36-.8-.8-.8h-3.24c-.44,0-.8.36-.8.8s.36.8.8.8h3.24c.44,0,.8-.36.8-.8Zm0,3.7c0-.44-.36-.8-.8-.8h-3.24c-.44,0-.8.36-.8.8s.36.8.8.8h3.24c.44,0,.8-.36.8-.8Zm0,3.7c0-.44-.36-.8-.8-.8h-3.24c-.44,0-.8.36-.8.8s.36.8.8.8h3.24c.44,0,.8-.36.8-.8Zm0,3.7c0-.44-.36-.8-.8-.8h-3.24c-.44,0-.8.36-.8.8s.36.8.8.8h3.24c.44,0,.8-.36.8-.8Zm0,3.7c0-.44-.36-.8-.8-.8h-3.24c-.44,0-.8.36-.8.8s.36.8.8.8h3.24c.44,0,.8-.36.8-.8Zm0,3.7c0-.44-.36-.8-.8-.8h-3.24c-.44,0-.8.36-.8.8s.36.8.8.8h3.24c.44,0,.8-.36.8-.8Zm12.11-25.89c0-.44-.36-.8-.8-.8h-8.49c-.44,0-.8.36-.8.8s.36.8.8.8h8.49c.44,0,.8-.36.8-.8Zm0,3.7c0-.44-.36-.8-.8-.8h-8.49c-.44,0-.8.36-.8.8s.36.8.8.8h8.49c.44,0,.8-.36.8-.8Zm0,3.7c0-.44-.36-.8-.8-.8h-8.49c-.44,0-.8.36-.8.8s.36.8.8.8h8.49c.44,0,.8-.36.8-.8Zm0,3.7c0-.44-.36-.8-.8-.8h-8.49c-.44,0-.8.36-.8.8s.36.8.8.8h8.49c.44,0,.8-.36.8-.8Zm0,3.7c0-.44-.36-.8-.8-.8h-8.49c-.44,0-.8.36-.8.8s.36.8.8.8h8.49c.44,0,.8-.36.8-.8Zm10.17,3.7c0-.44-.36-.8-.8-.8h-8.49c-.44,0-.8.36-.8.8s.36.8.8.8h8.49c.44,0,.8-.36.8-.8Zm0,3.7c0-.44-.36-.8-.8-.8h-8.49c-.44,0-.8.36-.8.8s.36.8.8.8h8.49c.44,0,.8-.36.8-.8Zm0,3.7c0-.44-.36-.8-.8-.8h-8.49c-.44,0-.8.36-.8.8s.36.8.8.8h8.49c.44,0,.8-.36.8-.8Zm-6.43-25.89c0-.51-.41-.92-.92-.92s-.92.41-.92.92.41.92.92.92.92-.41.92-.92Zm2.77,0c0-.51-.41-.92-.92-.92s-.92.41-.92.92.41.92.92.92.92-.41.92-.92Zm2.77,0c0-.51-.41-.92-.92-.92s-.92.41-.92.92.41.92.92.92.92-.41.92-.92Zm2.77,0c0-.51-.41-.92-.92-.92s-.92.41-.92.92.41.92.92.92.92-.41.92-.92Zm2.77,0c0-.51-.41-.92-.92-.92s-.92.41-.92.92.41.92.92.92.92-.41.92-.92Zm2.77,0c0-.51-.41-.92-.92-.92s-.92.41-.92.92.41.92.92.92.92-.41.92-.92Zm-13.87,7.4c0-.51-.41-.92-.92-.92s-.92.41-.92.92.41.92.92.92.92-.41.92-.92Zm2.77,0c0-.51-.41-.92-.92-.92s-.92.41-.92.92.41.92.92.92.92-.41.92-.92Zm2.77,0c0-.51-.41-.92-.92-.92s-.92.41-.92.92.41.92.92.92.92-.41.92-.92Zm2.77,0c0-.51-.41-.92-.92-.92s-.92.41-.92.92.41.92.92.92.92-.41.92-.92Zm2.77,0c0-.51-.41-.92-.92-.92s-.92.41-.92.92.41.92.92.92.92-.41.92-.92Zm2.77,0c0-.51-.41-.92-.92-.92s-.92.41-.92.92.41.92.92.92.92-.41.92-.92Zm-4.39,10.63c0-.51-.41-.92-.92-.92s-.92.41-.92.92.41.92.92.92.92-.41.92-.92Zm2.77,0c0-.51-.41-.92-.92-.92s-.92.41-.92.92.41.92.92.92.92-.41.92-.92Zm2.77,0c0-.51-.41-.92-.92-.92s-.92.41-.92.92.41.92.92.92.92-.41.92-.92Zm2.77,0c0-.51-.41-.92-.92-.92s-.92.41-.92.92.41.92.92.92.92-.41.92-.92Zm2.77,0c0-.51-.41-.92-.92-.92s-.92.41-.92.92.41.92.92.92.92-.41.92-.92Zm2.77,0c0-.51-.41-.92-.92-.92s-.92.41-.92.92.41.92.92.92.92-.41.92-.92Zm-13.87,7.63c0-.51-.41-.92-.92-.92s-.92.41-.92.92.41.92.92.92.92-.41.92-.92Zm2.77,0c0-.51-.41-.92-.92-.92s-.92.41-.92.92.41.92.92.92.92-.41.92-.92Zm2.77,0c0-.51-.41-.92-.92-.92s-.92.41-.92.92.41.92.92.92.92-.41.92-.92Zm2.77,0c0-.51-.41-.92-.92-.92s-.92.41-.92.92.41.92.92.92.92-.41.92-.92Zm2.77,0c0-.51-.41-.92-.92-.92s-.92.41-.92.92.41.92.92.92.92-.41.92-.92Zm2.77,0c0-.51-.41-.92-.92-.92s-.92.41-.92.92.41.92.92.92.92-.41.92-.92Z"/>
      </g>
      <g>
        <path class="cls-1" d="m153.26,28.52h-3.24c-.44,0-.8-.36-.8-.8s.36-.8.8-.8h3.24c.44,0,.8.36.8.8s-.36.8-.8.8Zm.8,2.9c0-.44-.36-.8-.8-.8h-3.24c-.44,0-.8.36-.8.8s.36.8.8.8h3.24c.44,0,.8-.36.8-.8Zm0,3.7c0-.44-.36-.8-.8-.8h-3.24c-.44,0-.8.36-.8.8s.36.8.8.8h3.24c.44,0,.8-.36.8-.8Zm0,3.7c0-.44-.36-.8-.8-.8h-3.24c-.44,0-.8.36-.8.8s.36.8.8.8h3.24c.44,0,.8-.36.8-.8Zm0,3.7c0-.44-.36-.8-.8-.8h-3.24c-.44,0-.8.36-.8.8s.36.8.8.8h3.24c.44,0,.8-.36.8-.8Zm0,3.7c0-.44-.36-.8-.8-.8h-3.24c-.44,0-.8.36-.8.8s.36.8.8.8h3.24c.44,0,.8-.36.8-.8Zm0,3.7c0-.44-.36-.8-.8-.8h-3.24c-.44,0-.8.36-.8.8s.36.8.8.8h3.24c.44,0,.8-.36.8-.8Zm0,3.7c0-.44-.36-.8-.8-.8h-3.24c-.44,0-.8.36-.8.8s.36.8.8.8h3.24c.44,0,.8-.36.8-.8Zm12.11-25.89c0-.44-.36-.8-.8-.8h-8.49c-.44,0-.8.36-.8.8s.36.8.8.8h8.49c.44,0,.8-.36.8-.8Zm0,3.7c0-.44-.36-.8-.8-.8h-8.49c-.44,0-.8.36-.8.8s.36.8.8.8h8.49c.44,0,.8-.36.8-.8Zm0,3.7c0-.44-.36-.8-.8-.8h-8.49c-.44,0-.8.36-.8.8s.36.8.8.8h8.49c.44,0,.8-.36.8-.8Zm0,3.7c0-.44-.36-.8-.8-.8h-8.49c-.44,0-.8.36-.8.8s.36.8.8.8h8.49c.44,0,.8-.36.8-.8Zm0,3.7c0-.44-.36-.8-.8-.8h-8.49c-.44,0-.8.36-.8.8s.36.8.8.8h8.49c.44,0,.8-.36.8-.8Zm10.17,3.7c0-.44-.36-.8-.8-.8h-8.49c-.44,0-.8.36-.8.8s.36.8.8.8h8.49c.44,0,.8-.36.8-.8Zm0,3.7c0-.44-.36-.8-.8-.8h-8.49c-.44,0-.8.36-.8.8s.36.8.8.8h8.49c.44,0,.8-.36.8-.8Zm0,3.7c0-.44-.36-.8-.8-.8h-8.49c-.44,0-.8.36-.8.8s.36.8.8.8h8.49c.44,0,.8-.36.8-.8Zm-6.43-25.89c0-.51-.41-.92-.92-.92s-.92.41-.92.92.41.92.92.92.92-.41.92-.92Zm2.77,0c0-.51-.41-.92-.92-.92s-.92.41-.92.92.41.92.92.92.92-.41.92-.92Zm2.77,0c0-.51-.41-.92-.92-.92s-.92.41-.92.92.41.92.92.92.92-.41.92-.92Zm2.77,0c0-.51-.41-.92-.92-.92s-.92.41-.92.92.41.92.92.92.92-.41.92-.92Zm2.77,0c0-.51-.41-.92-.92-.92s-.92.41-.92.92.41.92.92.92.92-.41.92-.92Zm2.77,0c0-.51-.41-.92-.92-.92s-.92.41-.92.92.41.92.92.92.92-.41.92-.92Zm-13.87,7.4c0-.51-.41-.92-.92-.92s-.92.41-.92.92.41.92.92.92.92-.41.92-.92Zm2.77,0c0-.51-.41-.92-.92-.92s-.92.41-.92.92.41.92.92.92.92-.41.92-.92Zm2.77,0c0-.51-.41-.92-.92-.92s-.92.41-.92.92.41.92.92.92.92-.41.92-.92Zm2.77,0c0-.51-.41-.92-.92-.92s-.92.41-.92.92.41.92.92.92.92-.41.92-.92Zm2.77,0c0-.51-.41-.92-.92-.92s-.92.41-.92.92.41.92.92.92.92-.41.92-.92Zm2.77,0c0-.51-.41-.92-.92-.92s-.92.41-.92.92.41.92.92.92.92-.41.92-.92Zm-4.39,10.63c0-.51-.41-.92-.92-.92s-.92.41-.92.92.41.92.92.92.92-.41.92-.92Zm2.77,0c0-.51-.41-.92-.92-.92s-.92.41-.92.92.41.92.92.92.92-.41.92-.92Zm2.77,0c0-.51-.41-.92-.92-.92s-.92.41-.92.92.41.92.92.92.92-.41.92-.92Zm2.77,0c0-.51-.41-.92-.92-.92s-.92.41-.92.92.41.92.92.92.92-.41.92-.92Zm2.77,0c0-.51-.41-.92-.92-.92s-.92.41-.92.92.41.92.92.92.92-.41.92-.92Zm2.77,0c0-.51-.41-.92-.92-.92s-.92.41-.92.92.41.92.92.92.92-.41.92-.92Zm-13.87,7.63c0-.51-.41-.92-.92-.92s-.92.41-.92.92.41.92.92.92.92-.41.92-.92Zm2.77,0c0-.51-.41-.92-.92-.92s-.92.41-.92.92.41.92.92.92.92-.41.92-.92Zm2.77,0c0-.51-.41-.92-.92-.92s-.92.41-.92.92.41.92.92.92.92-.41.92-.92Zm2.77,0c0-.51-.41-.92-.92-.92s-.92.41-.92.92.41.92.92.92.92-.41.92-.92Zm2.77,0c0-.51-.41-.92-.92-.92s-.92.41-.92.92.41.92.92.92.92-.41.92-.92Zm2.77,0c0-.51-.41-.92-.92-.92s-.92.41-.92.92.41.92.92.92.92-.41.92-.92Z"/>
        <path class="cls-1" d="m153.26,58.12h-3.24c-.44,0-.8-.36-.8-.8s.36-.8.8-.8h3.24c.44,0,.8.36.8.8s-.36.8-.8.8Zm.8,2.9c0-.44-.36-.8-.8-.8h-3.24c-.44,0-.8.36-.8.8s.36.8.8.8h3.24c.44,0,.8-.36.8-.8Zm0,3.7c0-.44-.36-.8-.8-.8h-3.24c-.44,0-.8.36-.8.8s.36.8.8.8h3.24c.44,0,.8-.36.8-.8Zm0,3.7c0-.44-.36-.8-.8-.8h-3.24c-.44,0-.8.36-.8.8s.36.8.8.8h3.24c.44,0,.8-.36.8-.8Zm0,3.7c0-.44-.36-.8-.8-.8h-3.24c-.44,0-.8.36-.8.8s.36.8.8.8h3.24c.44,0,.8-.36.8-.8Zm0,3.7c0-.44-.36-.8-.8-.8h-3.24c-.44,0-.8.36-.8.8s.36.8.8.8h3.24c.44,0,.8-.36.8-.8Zm0,3.7c0-.44-.36-.8-.8-.8h-3.24c-.44,0-.8.36-.8.8s.36.8.8.8h3.24c.44,0,.8-.36.8-.8Zm0,3.7c0-.44-.36-.8-.8-.8h-3.24c-.44,0-.8.36-.8.8s.36.8.8.8h3.24c.44,0,.8-.36.8-.8Zm12.11-25.89c0-.44-.36-.8-.8-.8h-8.49c-.44,0-.8.36-.8.8s.36.8.8.8h8.49c.44,0,.8-.36.8-.8Zm0,3.7c0-.44-.36-.8-.8-.8h-8.49c-.44,0-.8.36-.8.8s.36.8.8.8h8.49c.44,0,.8-.36.8-.8Zm0,3.7c0-.44-.36-.8-.8-.8h-8.49c-.44,0-.8.36-.8.8s.36.8.8.8h8.49c.44,0,.8-.36.8-.8Zm0,3.7c0-.44-.36-.8-.8-.8h-8.49c-.44,0-.8.36-.8.8s.36.8.8.8h8.49c.44,0,.8-.36.8-.8Zm0,3.7c0-.44-.36-.8-.8-.8h-8.49c-.44,0-.8.36-.8.8s.36.8.8.8h8.49c.44,0,.8-.36.8-.8Zm10.17,3.7c0-.44-.36-.8-.8-.8h-8.49c-.44,0-.8.36-.8.8s.36.8.8.8h8.49c.44,0,.8-.36.8-.8Zm0,3.7c0-.44-.36-.8-.8-.8h-8.49c-.44,0-.8.36-.8.8s.36.8.8.8h8.49c.44,0,.8-.36.8-.8Zm0,3.7c0-.44-.36-.8-.8-.8h-8.49c-.44,0-.8.36-.8.8s.36.8.8.8h8.49c.44,0,.8-.36.8-.8Zm-6.43-25.89c0-.51-.41-.92-.92-.92s-.92.41-.92.92.41.92.92.92.92-.41.92-.92Zm2.77,0c0-.51-.41-.92-.92-.92s-.92.41-.92.92.41.92.92.92.92-.41.92-.92Zm2.77,0c0-.51-.41-.92-.92-.92s-.92.41-.92.92.41.92.92.92.92-.41.92-.92Zm2.77,0c0-.51-.41-.92-.92-.92s-.92.41-.92.92.41.92.92.92.92-.41.92-.92Zm2.77,0c0-.51-.41-.92-.92-.92s-.92.41-.92.92.41.92.92.92.92-.41.92-.92Zm2.77,0c0-.51-.41-.92-.92-.92s-.92.41-.92.92.41.92.92.92.92-.41.92-.92Zm-13.87,7.4c0-.51-.41-.92-.92-.92s-.92.41-.92.92.41.92.92.92.92-.41.92-.92Zm2.77,0c0-.51-.41-.92-.92-.92s-.92.41-.92.92.41.92.92.92.92-.41.92-.92Zm2.77,0c0-.51-.41-.92-.92-.92s-.92.41-.92.92.41.92.92.92.92-.41.92-.92Zm2.77,0c0-.51-.41-.92-.92-.92s-.92.41-.92.92.41.92.92.92.92-.41.92-.92Zm2.77,0c0-.51-.41-.92-.92-.92s-.92.41-.92.92.41.92.92.92.92-.41.92-.92Zm2.77,0c0-.51-.41-.92-.92-.92s-.92.41-.92.92.41.92.92.92.92-.41.92-.92Zm-4.39,10.63c0-.51-.41-.92-.92-.92s-.92.41-.92.92.41.92.92.92.92-.41.92-.92Zm2.77,0c0-.51-.41-.92-.92-.92s-.92.41-.92.92.41.92.92.92.92-.41.92-.92Zm2.77,0c0-.51-.41-.92-.92-.92s-.92.41-.92.92.41.92.92.92.92-.41.92-.92Zm2.77,0c0-.51-.41-.92-.92-.92s-.92.41-.92.92.41.92.92.92.92-.41.92-.92Zm2.77,0c0-.51-.41-.92-.92-.92s-.92.41-.92.92.41.92.92.92.92-.41.92-.92Zm2.77,0c0-.51-.41-.92-.92-.92s-.92.41-.92.92.41.92.92.92.92-.41.92-.92Zm-13.87,7.63c0-.51-.41-.92-.92-.92s-.92.41-.92.92.41.92.92.92.92-.41.92-.92Zm2.77,0c0-.51-.41-.92-.92-.92s-.92.41-.92.92.41.92.92.92.92-.41.92-.92Zm2.77,0c0-.51-.41-.92-.92-.92s-.92.41-.92.92.41.92.92.92.92-.41.92-.92Zm2.77,0c0-.51-.41-.92-.92-.92s-.92.41-.92.92.41.92.92.92.92-.41.92-.92Zm2.77,0c0-.51-.41-.92-.92-.92s-.92.41-.92.92.41.92.92.92.92-.41.92-.92Zm2.77,0c0-.51-.41-.92-.92-.92s-.92.41-.92.92.41.92.92.92.92-.41.92-.92Z"/>
        <path class="cls-1" d="m153.26,88.42h-3.24c-.44,0-.8-.36-.8-.8s.36-.8.8-.8h3.24c.44,0,.8.36.8.8s-.36.8-.8.8Zm.8,2.9c0-.44-.36-.8-.8-.8h-3.24c-.44,0-.8.36-.8.8s.36.8.8.8h3.24c.44,0,.8-.36.8-.8Zm0,3.7c0-.44-.36-.8-.8-.8h-3.24c-.44,0-.8.36-.8.8s.36.8.8.8h3.24c.44,0,.8-.36.8-.8Zm0,3.7c0-.44-.36-.8-.8-.8h-3.24c-.44,0-.8.36-.8.8s.36.8.8.8h3.24c.44,0,.8-.36.8-.8Zm0,3.7c0-.44-.36-.8-.8-.8h-3.24c-.44,0-.8.36-.8.8s.36.8.8.8h3.24c.44,0,.8-.36.8-.8Zm0,3.7c0-.44-.36-.8-.8-.8h-3.24c-.44,0-.8.36-.8.8s.36.8.8.8h3.24c.44,0,.8-.36.8-.8Zm0,3.7c0-.44-.36-.8-.8-.8h-3.24c-.44,0-.8.36-.8.8s.36.8.8.8h3.24c.44,0,.8-.36.8-.8Zm0,3.7c0-.44-.36-.8-.8-.8h-3.24c-.44,0-.8.36-.8.8s.36.8.8.8h3.24c.44,0,.8-.36.8-.8Zm12.11-25.89c0-.44-.36-.8-.8-.8h-8.49c-.44,0-.8.36-.8.8s.36.8.8.8h8.49c.44,0,.8-.36.8-.8Zm0,3.7c0-.44-.36-.8-.8-.8h-8.49c-.44,0-.8.36-.8.8s.36.8.8.8h8.49c.44,0,.8-.36.8-.8Zm0,3.7c0-.44-.36-.8-.8-.8h-8.49c-.44,0-.8.36-.8.8s.36.8.8.8h8.49c.44,0,.8-.36.8-.8Zm0,3.7c0-.44-.36-.8-.8-.8h-8.49c-.44,0-.8.36-.8.8s.36.8.8.8h8.49c.44,0,.8-.36.8-.8Zm0,3.7c0-.44-.36-.8-.8-.8h-8.49c-.44,0-.8.36-.8.8s.36.8.8.8h8.49c.44,0,.8-.36.8-.8Zm10.17,3.7c0-.44-.36-.8-.8-.8h-8.49c-.44,0-.8.36-.8.8s.36.8.8.8h8.49c.44,0,.8-.36.8-.8Zm0,3.7c0-.44-.36-.8-.8-.8h-8.49c-.44,0-.8.36-.8.8s.36.8.8.8h8.49c.44,0,.8-.36.8-.8Zm0,3.7c0-.44-.36-.8-.8-.8h-8.49c-.44,0-.8.36-.8.8s.36.8.8.8h8.49c.44,0,.8-.36.8-.8Zm-6.43-25.89c0-.51-.41-.92-.92-.92s-.92.41-.92.92.41.92.92.92.92-.41.92-.92Zm2.77,0c0-.51-.41-.92-.92-.92s-.92.41-.92.92.41.92.92.92.92-.41.92-.92Zm2.77,0c0-.51-.41-.92-.92-.92s-.92.41-.92.92.41.92.92.92.92-.41.92-.92Zm2.77,0c0-.51-.41-.92-.92-.92s-.92.41-.92.92.41.92.92.92.92-.41.92-.92Zm2.77,0c0-.51-.41-.92-.92-.92s-.92.41-.92.92.41.92.92.92.92-.41.92-.92Zm2.77,0c0-.51-.41-.92-.92-.92s-.92.41-.92.92.41.92.92.92.92-.41.92-.92Zm-13.87,7.4c0-.51-.41-.92-.92-.92s-.92.41-.92.92.41.92.92.92.92-.41.92-.92Zm2.77,0c0-.51-.41-.92-.92-.92s-.92.41-.92.92.41.92.92.92.92-.41.92-.92Zm2.77,0c0-.51-.41-.92-.92-.92s-.92.41-.92.92.41.92.92.92.92-.41.92-.92Zm2.77,0c0-.51-.41-.92-.92-.92s-.92.41-.92.92.41.92.92.92.92-.41.92-.92Zm2.77,0c0-.51-.41-.92-.92-.92s-.92.41-.92.92.41.92.92.92.92-.41.92-.92Zm2.77,0c0-.51-.41-.92-.92-.92s-.92.41-.92.92.41.92.92.92.92-.41.92-.92Zm-4.39,10.63c0-.51-.41-.92-.92-.92s-.92.41-.92.92.41.92.92.92.92-.41.92-.92Zm2.77,0c0-.51-.41-.92-.92-.92s-.92.41-.92.92.41.92.92.92.92-.41.92-.92Zm2.77,0c0-.51-.41-.92-.92-.92s-.92.41-.92.92.41.92.92.92.92-.41.92-.92Zm2.77,0c0-.51-.41-.92-.92-.92s-.92.41-.92.92.41.92.92.92.92-.41.92-.92Zm2.77,0c0-.51-.41-.92-.92-.92s-.92.41-.92.92.41.92.92.92.92-.41.92-.92Zm2.77,0c0-.51-.41-.92-.92-.92s-.92.41-.92.92.41.92.92.92.92-.41.92-.92Zm-13.87,7.63c0-.51-.41-.92-.92-.92s-.92.41-.92.92.41.92.92.92.92-.41.92-.92Zm2.77,0c0-.51-.41-.92-.92-.92s-.92.41-.92.92.41.92.92.92.92-.41.92-.92Zm2.77,0c0-.51-.41-.92-.92-.92s-.92.41-.92.92.41.92.92.92.92-.41.92-.92Zm2.77,0c0-.51-.41-.92-.92-.92s-.92.41-.92.92.41.92.92.92.92-.41.92-.92Zm2.77,0c0-.51-.41-.92-.92-.92s-.92.41-.92.92.41.92.92.92.92-.41.92-.92Zm2.77,0c0-.51-.41-.92-.92-.92s-.92.41-.92.92.41.92.92.92.92-.41.92-.92Z"/>
        <path class="cls-1" d="m202.94,28.52h-3.24c-.44,0-.8-.36-.8-.8s.36-.8.8-.8h3.24c.44,0,.8.36.8.8s-.36.8-.8.8Zm.8,2.9c0-.44-.36-.8-.8-.8h-3.24c-.44,0-.8.36-.8.8s.36.8.8.8h3.24c.44,0,.8-.36.8-.8Zm0,3.7c0-.44-.36-.8-.8-.8h-3.24c-.44,0-.8.36-.8.8s.36.8.8.8h3.24c.44,0,.8-.36.8-.8Zm0,3.7c0-.44-.36-.8-.8-.8h-3.24c-.44,0-.8.36-.8.8s.36.8.8.8h3.24c.44,0,.8-.36.8-.8Zm0,3.7c0-.44-.36-.8-.8-.8h-3.24c-.44,0-.8.36-.8.8s.36.8.8.8h3.24c.44,0,.8-.36.8-.8Zm0,3.7c0-.44-.36-.8-.8-.8h-3.24c-.44,0-.8.36-.8.8s.36.8.8.8h3.24c.44,0,.8-.36.8-.8Zm0,3.7c0-.44-.36-.8-.8-.8h-3.24c-.44,0-.8.36-.8.8s.36.8.8.8h3.24c.44,0,.8-.36.8-.8Zm0,3.7c0-.44-.36-.8-.8-.8h-3.24c-.44,0-.8.36-.8.8s.36.8.8.8h3.24c.44,0,.8-.36.8-.8Zm12.11-25.89c0-.44-.36-.8-.8-.8h-8.49c-.44,0-.8.36-.8.8s.36.8.8.8h8.49c.44,0,.8-.36.8-.8Zm0,3.7c0-.44-.36-.8-.8-.8h-8.49c-.44,0-.8.36-.8.8s.36.8.8.8h8.49c.44,0,.8-.36.8-.8Zm0,3.7c0-.44-.36-.8-.8-.8h-8.49c-.44,0-.8.36-.8.8s.36.8.8.8h8.49c.44,0,.8-.36.8-.8Zm0,3.7c0-.44-.36-.8-.8-.8h-8.49c-.44,0-.8.36-.8.8s.36.8.8.8h8.49c.44,0,.8-.36.8-.8Zm0,3.7c0-.44-.36-.8-.8-.8h-8.49c-.44,0-.8.36-.8.8s.36.8.8.8h8.49c.44,0,.8-.36.8-.8Zm10.17,3.7c0-.44-.36-.8-.8-.8h-8.49c-.44,0-.8.36-.8.8s.36.8.8.8h8.49c.44,0,.8-.36.8-.8Zm0,3.7c0-.44-.36-.8-.8-.8h-8.49c-.44,0-.8.36-.8.8s.36.8.8.8h8.49c.44,0,.8-.36.8-.8Zm0,3.7c0-.44-.36-.8-.8-.8h-8.49c-.44,0-.8.36-.8.8s.36.8.8.8h8.49c.44,0,.8-.36.8-.8Zm-6.43-25.89c0-.51-.41-.92-.92-.92s-.92.41-.92.92.41.92.92.92.92-.41.92-.92Zm2.77,0c0-.51-.41-.92-.92-.92s-.92.41-.92.92.41.92.92.92.92-.41.92-.92Zm2.77,0c0-.51-.41-.92-.92-.92s-.92.41-.92.92.41.92.92.92.92-.41.92-.92Zm2.77,0c0-.51-.41-.92-.92-.92s-.92.41-.92.92.41.92.92.92.92-.41.92-.92Zm2.77,0c0-.51-.41-.92-.92-.92s-.92.41-.92.92.41.92.92.92.92-.41.92-.92Zm2.77,0c0-.51-.41-.92-.92-.92s-.92.41-.92.92.41.92.92.92.92-.41.92-.92Zm-13.87,7.4c0-.51-.41-.92-.92-.92s-.92.41-.92.92.41.92.92.92.92-.41.92-.92Zm2.77,0c0-.51-.41-.92-.92-.92s-.92.41-.92.92.41.92.92.92.92-.41.92-.92Zm2.77,0c0-.51-.41-.92-.92-.92s-.92.41-.92.92.41.92.92.92.92-.41.92-.92Zm2.77,0c0-.51-.41-.92-.92-.92s-.92.41-.92.92.41.92.92.92.92-.41.92-.92Zm2.77,0c0-.51-.41-.92-.92-.92s-.92.41-.92.92.41.92.92.92.92-.41.92-.92Zm2.77,0c0-.51-.41-.92-.92-.92s-.92.41-.92.92.41.92.92.92.92-.41.92-.92Zm-4.39,10.63c0-.51-.41-.92-.92-.92s-.92.41-.92.92.41.92.92.92.92-.41.92-.92Zm2.77,0c0-.51-.41-.92-.92-.92s-.92.41-.92.92.41.92.92.92.92-.41.92-.92Zm2.77,0c0-.51-.41-.92-.92-.92s-.92.41-.92.92.41.92.92.92.92-.41.92-.92Zm2.77,0c0-.51-.41-.92-.92-.92s-.92.41-.92.92.41.92.92.92.92-.41.92-.92Zm2.77,0c0-.51-.41-.92-.92-.92s-.92.41-.92.92.41.92.92.92.92-.41.92-.92Zm2.77,0c0-.51-.41-.92-.92-.92s-.92.41-.92.92.41.92.92.92.92-.41.92-.92Zm-13.87,7.63c0-.51-.41-.92-.92-.92s-.92.41-.92.92.41.92.92.92.92-.41.92-.92Zm2.77,0c0-.51-.41-.92-.92-.92s-.92.41-.92.92.41.92.92.92.92-.41.92-.92Zm2.77,0c0-.51-.41-.92-.92-.92s-.92.41-.92.92.41.92.92.92.92-.41.92-.92Zm2.77,0c0-.51-.41-.92-.92-.92s-.92.41-.92.92.41.92.92.92.92-.41.92-.92Zm2.77,0c0-.51-.41-.92-.92-.92s-.92.41-.92.92.41.92.92.92.92-.41.92-.92Zm2.77,0c0-.51-.41-.92-.92-.92s-.92.41-.92.92.41.92.92.92.92-.41.92-.92Z"/>
        <path class="cls-1" d="m202.94,58.83h-3.24c-.44,0-.8-.36-.8-.8s.36-.8.8-.8h3.24c.44,0,.8.36.8.8s-.36.8-.8.8Zm.8,2.9c0-.44-.36-.8-.8-.8h-3.24c-.44,0-.8.36-.8.8s.36.8.8.8h3.24c.44,0,.8-.36.8-.8Zm0,3.7c0-.44-.36-.8-.8-.8h-3.24c-.44,0-.8.36-.8.8s.36.8.8.8h3.24c.44,0,.8-.36.8-.8Zm0,3.7c0-.44-.36-.8-.8-.8h-3.24c-.44,0-.8.36-.8.8s.36.8.8.8h3.24c.44,0,.8-.36.8-.8Zm0,3.7c0-.44-.36-.8-.8-.8h-3.24c-.44,0-.8.36-.8.8s.36.8.8.8h3.24c.44,0,.8-.36.8-.8Zm0,3.7c0-.44-.36-.8-.8-.8h-3.24c-.44,0-.8.36-.8.8s.36.8.8.8h3.24c.44,0,.8-.36.8-.8Zm0,3.7c0-.44-.36-.8-.8-.8h-3.24c-.44,0-.8.36-.8.8s.36.8.8.8h3.24c.44,0,.8-.36.8-.8Zm0,3.7c0-.44-.36-.8-.8-.8h-3.24c-.44,0-.8.36-.8.8s.36.8.8.8h3.24c.44,0,.8-.36.8-.8Zm12.11-25.89c0-.44-.36-.8-.8-.8h-8.49c-.44,0-.8.36-.8.8s.36.8.8.8h8.49c.44,0,.8-.36.8-.8Zm0,3.7c0-.44-.36-.8-.8-.8h-8.49c-.44,0-.8.36-.8.8s.36.8.8.8h8.49c.44,0,.8-.36.8-.8Zm0,3.7c0-.44-.36-.8-.8-.8h-8.49c-.44,0-.8.36-.8.8s.36.8.8.8h8.49c.44,0,.8-.36.8-.8Zm0,3.7c0-.44-.36-.8-.8-.8h-8.49c-.44,0-.8.36-.8.8s.36.8.8.8h8.49c.44,0,.8-.36.8-.8Zm0,3.7c0-.44-.36-.8-.8-.8h-8.49c-.44,0-.8.36-.8.8s.36.8.8.8h8.49c.44,0,.8-.36.8-.8Zm10.17,3.7c0-.44-.36-.8-.8-.8h-8.49c-.44,0-.8.36-.8.8s.36.8.8.8h8.49c.44,0,.8-.36.8-.8Zm0,3.7c0-.44-.36-.8-.8-.8h-8.49c-.44,0-.8.36-.8.8s.36.8.8.8h8.49c.44,0,.8-.36.8-.8Zm0,3.7c0-.44-.36-.8-.8-.8h-8.49c-.44,0-.8.36-.8.8s.36.8.8.8h8.49c.44,0,.8-.36.8-.8Zm-6.43-25.89c0-.51-.41-.92-.92-.92s-.92.41-.92.92.41.92.92.92.92-.41.92-.92Zm2.77,0c0-.51-.41-.92-.92-.92s-.92.41-.92.92.41.92.92.92.92-.41.92-.92Zm2.77,0c0-.51-.41-.92-.92-.92s-.92.41-.92.92.41.92.92.92.92-.41.92-.92Zm2.77,0c0-.51-.41-.92-.92-.92s-.92.41-.92.92.41.92.92.92.92-.41.92-.92Zm2.77,0c0-.51-.41-.92-.92-.92s-.92.41-.92.92.41.92.92.92.92-.41.92-.92Zm2.77,0c0-.51-.41-.92-.92-.92s-.92.41-.92.92.41.92.92.92.92-.41.92-.92Zm-13.87,7.4c0-.51-.41-.92-.92-.92s-.92.41-.92.92.41.92.92.92.92-.41.92-.92Zm2.77,0c0-.51-.41-.92-.92-.92s-.92.41-.92.92.41.92.92.92.92-.41.92-.92Zm2.77,0c0-.51-.41-.92-.92-.92s-.92.41-.92.92.41.92.92.92.92-.41.92-.92Zm2.77,0c0-.51-.41-.92-.92-.92s-.92.41-.92.92.41.92.92.92.92-.41.92-.92Zm2.77,0c0-.51-.41-.92-.92-.92s-.92.41-.92.92.41.92.92.92.92-.41.92-.92Zm2.77,0c0-.51-.41-.92-.92-.92s-.92.41-.92.92.41.92.92.92.92-.41.92-.92Zm-4.39,10.63c0-.51-.41-.92-.92-.92s-.92.41-.92.92.41.92.92.92.92-.41.92-.92Zm2.77,0c0-.51-.41-.92-.92-.92s-.92.41-.92.92.41.92.92.92.92-.41.92-.92Zm2.77,0c0-.51-.41-.92-.92-.92s-.92.41-.92.92.41.92.92.92.92-.41.92-.92Zm2.77,0c0-.51-.41-.92-.92-.92s-.92.41-.92.92.41.92.92.92.92-.41.92-.92Zm2.77,0c0-.51-.41-.92-.92-.92s-.92.41-.92.92.41.92.92.92.92-.41.92-.92Zm2.77,0c0-.51-.41-.92-.92-.92s-.92.41-.92.92.41.92.92.92.92-.41.92-.92Zm-13.87,7.63c0-.51-.41-.92-.92-.92s-.92.41-.92.92.41.92.92.92.92-.41.92-.92Zm2.77,0c0-.51-.41-.92-.92-.92s-.92.41-.92.92.41.92.92.92.92-.41.92-.92Zm2.77,0c0-.51-.41-.92-.92-.92s-.92.41-.92.92.41.92.92.92.92-.41.92-.92Zm2.77,0c0-.51-.41-.92-.92-.92s-.92.41-.92.92.41.92.92.92.92-.41.92-.92Zm2.77,0c0-.51-.41-.92-.92-.92s-.92.41-.92.92.41.92.92.92.92-.41.92-.92Zm2.77,0c0-.51-.41-.92-.92-.92s-.92.41-.92.92.41.92.92.92.92-.41.92-.92Z"/>
      </g>
      <g>
        <path class="cls-1" d="m43.85,95.75h-3.24c-.44,0-.8-.36-.8-.8s.36-.8.8-.8h3.24c.44,0,.8.36.8.8s-.36.8-.8.8Zm.8,2.9c0-.44-.36-.8-.8-.8h-3.24c-.44,0-.8.36-.8.8s.36.8.8.8h3.24c.44,0,.8-.36.8-.8Zm0,3.7c0-.44-.36-.8-.8-.8h-3.24c-.44,0-.8.36-.8.8s.36.8.8.8h3.24c.44,0,.8-.36.8-.8Zm0,3.7c0-.44-.36-.8-.8-.8h-3.24c-.44,0-.8.36-.8.8s.36.8.8.8h3.24c.44,0,.8-.36.8-.8Zm0,3.7c0-.44-.36-.8-.8-.8h-3.24c-.44,0-.8.36-.8.8s.36.8.8.8h3.24c.44,0,.8-.36.8-.8Zm0,3.7c0-.44-.36-.8-.8-.8h-3.24c-.44,0-.8.36-.8.8s.36.8.8.8h3.24c.44,0,.8-.36.8-.8Zm0,3.7c0-.44-.36-.8-.8-.8h-3.24c-.44,0-.8.36-.8.8s.36.8.8.8h3.24c.44,0,.8-.36.8-.8Zm0,3.7c0-.44-.36-.8-.8-.8h-3.24c-.44,0-.8.36-.8.8s.36.8.8.8h3.24c.44,0,.8-.36.8-.8Zm12.11-25.89c0-.44-.36-.8-.8-.8h-8.49c-.44,0-.8.36-.8.8s.36.8.8.8h8.49c.44,0,.8-.36.8-.8Zm0,3.7c0-.44-.36-.8-.8-.8h-8.49c-.44,0-.8.36-.8.8s.36.8.8.8h8.49c.44,0,.8-.36.8-.8Zm0,3.7c0-.44-.36-.8-.8-.8h-8.49c-.44,0-.8.36-.8.8s.36.8.8.8h8.49c.44,0,.8-.36.8-.8Zm0,3.7c0-.44-.36-.8-.8-.8h-8.49c-.44,0-.8.36-.8.8s.36.8.8.8h8.49c.44,0,.8-.36.8-.8Zm0,3.7c0-.44-.36-.8-.8-.8h-8.49c-.44,0-.8.36-.8.8s.36.8.8.8h8.49c.44,0,.8-.36.8-.8Zm10.17,3.7c0-.44-.36-.8-.8-.8h-8.49c-.44,0-.8.36-.8.8s.36.8.8.8h8.49c.44,0,.8-.36.8-.8Zm0,3.7c0-.44-.36-.8-.8-.8h-8.49c-.44,0-.8.36-.8.8s.36.8.8.8h8.49c.44,0,.8-.36.8-.8Zm0,3.7c0-.44-.36-.8-.8-.8h-8.49c-.44,0-.8.36-.8.8s.36.8.8.8h8.49c.44,0,.8-.36.8-.8Zm-6.43-25.89c0-.51-.41-.92-.92-.92s-.92.41-.92.92.41.92.92.92.92-.41.92-.92Zm2.77,0c0-.51-.41-.92-.92-.92s-.92.41-.92.92.41.92.92.92.92-.41.92-.92Zm2.77,0c0-.51-.41-.92-.92-.92s-.92.41-.92.92.41.92.92.92.92-.41.92-.92Zm2.77,0c0-.51-.41-.92-.92-.92s-.92.41-.92.92.41.92.92.92.92-.41.92-.92Zm2.77,0c0-.51-.41-.92-.92-.92s-.92.41-.92.92.41.92.92.92.92-.41.92-.92Zm2.77,0c0-.51-.41-.92-.92-.92s-.92.41-.92.92.41.92.92.92.92-.41.92-.92Zm-13.87,7.4c0-.51-.41-.92-.92-.92s-.92.41-.92.92.41.92.92.92.92-.41.92-.92Zm2.77,0c0-.51-.41-.92-.92-.92s-.92.41-.92.92.41.92.92.92.92-.41.92-.92Zm2.77,0c0-.51-.41-.92-.92-.92s-.92.41-.92.92.41.92.92.92.92-.41.92-.92Zm2.77,0c0-.51-.41-.92-.92-.92s-.92.41-.92.92.41.92.92.92.92-.41.92-.92Zm2.77,0c0-.51-.41-.92-.92-.92s-.92.41-.92.92.41.92.92.92.92-.41.92-.92Zm2.77,0c0-.51-.41-.92-.92-.92s-.92.41-.92.92.41.92.92.92.92-.41.92-.92Zm-4.39,10.63c0-.51-.41-.92-.92-.92s-.92.41-.92.92.41.92.92.92.92-.41.92-.92Zm2.77,0c0-.51-.41-.92-.92-.92s-.92.41-.92.92.41.92.92.92.92-.41.92-.92Zm2.77,0c0-.51-.41-.92-.92-.92s-.92.41-.92.92.41.92.92.92.92-.41.92-.92Zm2.77,0c0-.51-.41-.92-.92-.92s-.92.41-.92.92.41.92.92.92.92-.41.92-.92Zm2.77,0c0-.51-.41-.92-.92-.92s-.92.41-.92.92.41.92.92.92.92-.41.92-.92Zm2.77,0c0-.51-.41-.92-.92-.92s-.92.41-.92.92.41.92.92.92.92-.41.92-.92Zm-13.87,7.63c0-.51-.41-.92-.92-.92s-.92.41-.92.92.41.92.92.92.92-.41.92-.92Zm2.77,0c0-.51-.41-.92-.92-.92s-.92.41-.92.92.41.92.92.92.92-.41.92-.92Zm2.77,0c0-.51-.41-.92-.92-.92s-.92.41-.92.92.41.92.92.92.92-.41.92-.92Zm2.77,0c0-.51-.41-.92-.92-.92s-.92.41-.92.92.41.92.92.92.92-.41.92-.92Zm2.77,0c0-.51-.41-.92-.92-.92s-.92.41-.92.92.41.92.92.92.92-.41.92-.92Zm2.77,0c0-.51-.41-.92-.92-.92s-.92.41-.92.92.41.92.92.92.92-.41.92-.92Z"/>
        <path class="cls-1" d="m43.85,125.35h-3.24c-.44,0-.8-.36-.8-.8s.36-.8.8-.8h3.24c.44,0,.8.36.8.8s-.36.8-.8.8Zm.8,2.9c0-.44-.36-.8-.8-.8h-3.24c-.44,0-.8.36-.8.8s.36.8.8.8h3.24c.44,0,.8-.36.8-.8Zm0,3.7c0-.44-.36-.8-.8-.8h-3.24c-.44,0-.8.36-.8.8s.36.8.8.8h3.24c.44,0,.8-.36.8-.8Zm0,3.7c0-.44-.36-.8-.8-.8h-3.24c-.44,0-.8.36-.8.8s.36.8.8.8h3.24c.44,0,.8-.36.8-.8Zm0,3.7c0-.44-.36-.8-.8-.8h-3.24c-.44,0-.8.36-.8.8s.36.8.8.8h3.24c.44,0,.8-.36.8-.8Zm0,3.7c0-.44-.36-.8-.8-.8h-3.24c-.44,0-.8.36-.8.8s.36.8.8.8h3.24c.44,0,.8-.36.8-.8Zm0,3.7c0-.44-.36-.8-.8-.8h-3.24c-.44,0-.8.36-.8.8s.36.8.8.8h3.24c.44,0,.8-.36.8-.8Zm0,3.7c0-.44-.36-.8-.8-.8h-3.24c-.44,0-.8.36-.8.8s.36.8.8.8h3.24c.44,0,.8-.36.8-.8Zm12.11-25.89c0-.44-.36-.8-.8-.8h-8.49c-.44,0-.8.36-.8.8s.36.8.8.8h8.49c.44,0,.8-.36.8-.8Zm0,3.7c0-.44-.36-.8-.8-.8h-8.49c-.44,0-.8.36-.8.8s.36.8.8.8h8.49c.44,0,.8-.36.8-.8Zm0,3.7c0-.44-.36-.8-.8-.8h-8.49c-.44,0-.8.36-.8.8s.36.8.8.8h8.49c.44,0,.8-.36.8-.8Zm0,3.7c0-.44-.36-.8-.8-.8h-8.49c-.44,0-.8.36-.8.8s.36.8.8.8h8.49c.44,0,.8-.36.8-.8Zm0,3.7c0-.44-.36-.8-.8-.8h-8.49c-.44,0-.8.36-.8.8s.36.8.8.8h8.49c.44,0,.8-.36.8-.8Zm10.17,3.7c0-.44-.36-.8-.8-.8h-8.49c-.44,0-.8.36-.8.8s.36.8.8.8h8.49c.44,0,.8-.36.8-.8Zm0,3.7c0-.44-.36-.8-.8-.8h-8.49c-.44,0-.8.36-.8.8s.36.8.8.8h8.49c.44,0,.8-.36.8-.8Zm0,3.7c0-.44-.36-.8-.8-.8h-8.49c-.44,0-.8.36-.8.8s.36.8.8.8h8.49c.44,0,.8-.36.8-.8Zm-6.43-25.89c0-.51-.41-.92-.92-.92s-.92.41-.92.92.41.92.92.92.92-.41.92-.92Zm2.77,0c0-.51-.41-.92-.92-.92s-.92.41-.92.92.41.92.92.92.92-.41.92-.92Zm2.77,0c0-.51-.41-.92-.92-.92s-.92.41-.92.92.41.92.92.92.92-.41.92-.92Zm2.77,0c0-.51-.41-.92-.92-.92s-.92.41-.92.92.41.92.92.92.92-.41.92-.92Zm2.77,0c0-.51-.41-.92-.92-.92s-.92.41-.92.92.41.92.92.92.92-.41.92-.92Zm2.77,0c0-.51-.41-.92-.92-.92s-.92.41-.92.92.41.92.92.92.92-.41.92-.92Zm-13.87,7.4c0-.51-.41-.92-.92-.92s-.92.41-.92.92.41.92.92.92.92-.41.92-.92Zm2.77,0c0-.51-.41-.92-.92-.92s-.92.41-.92.92.41.92.92.92.92-.41.92-.92Zm2.77,0c0-.51-.41-.92-.92-.92s-.92.41-.92.92.41.92.92.92.92-.41.92-.92Zm2.77,0c0-.51-.41-.92-.92-.92s-.92.41-.92.92.41.92.92.92.92-.41.92-.92Zm2.77,0c0-.51-.41-.92-.92-.92s-.92.41-.92.92.41.92.92.92.92-.41.92-.92Zm2.77,0c0-.51-.41-.92-.92-.92s-.92.41-.92.92.41.92.92.92.92-.41.92-.92Zm-4.39,10.63c0-.51-.41-.92-.92-.92s-.92.41-.92.92.41.92.92.92.92-.41.92-.92Zm2.77,0c0-.51-.41-.92-.92-.92s-.92.41-.92.92.41.92.92.92.92-.41.92-.92Zm2.77,0c0-.51-.41-.92-.92-.92s-.92.41-.92.92.41.92.92.92.92-.41.92-.92Zm2.77,0c0-.51-.41-.92-.92-.92s-.92.41-.92.92.41.92.92.92.92-.41.92-.92Zm2.77,0c0-.51-.41-.92-.92-.92s-.92.41-.92.92.41.92.92.92.92-.41.92-.92Zm2.77,0c0-.51-.41-.92-.92-.92s-.92.41-.92.92.41.92.92.92.92-.41.92-.92Zm-13.87,7.63c0-.51-.41-.92-.92-.92s-.92.41-.92.92.41.92.92.92.92-.41.92-.92Zm2.77,0c0-.51-.41-.92-.92-.92s-.92.41-.92.92.41.92.92.92.92-.41.92-.92Zm2.77,0c0-.51-.41-.92-.92-.92s-.92.41-.92.92.41.92.92.92.92-.41.92-.92Zm2.77,0c0-.51-.41-.92-.92-.92s-.92.41-.92.92.41.92.92.92.92-.41.92-.92Zm2.77,0c0-.51-.41-.92-.92-.92s-.92.41-.92.92.41.92.92.92.92-.41.92-.92Zm2.77,0c0-.51-.41-.92-.92-.92s-.92.41-.92.92.41.92.92.92.92-.41.92-.92Z"/>
        <path class="cls-1" d="m43.85,155.66h-3.24c-.44,0-.8-.36-.8-.8s.36-.8.8-.8h3.24c.44,0,.8.36.8.8s-.36.8-.8.8Zm.8,2.9c0-.44-.36-.8-.8-.8h-3.24c-.44,0-.8.36-.8.8s.36.8.8.8h3.24c.44,0,.8-.36.8-.8Zm0,3.7c0-.44-.36-.8-.8-.8h-3.24c-.44,0-.8.36-.8.8s.36.8.8.8h3.24c.44,0,.8-.36.8-.8Zm0,3.7c0-.44-.36-.8-.8-.8h-3.24c-.44,0-.8.36-.8.8s.36.8.8.8h3.24c.44,0,.8-.36.8-.8Zm0,3.7c0-.44-.36-.8-.8-.8h-3.24c-.44,0-.8.36-.8.8s.36.8.8.8h3.24c.44,0,.8-.36.8-.8Zm0,3.7c0-.44-.36-.8-.8-.8h-3.24c-.44,0-.8.36-.8.8s.36.8.8.8h3.24c.44,0,.8-.36.8-.8Zm0,3.7c0-.44-.36-.8-.8-.8h-3.24c-.44,0-.8.36-.8.8s.36.8.8.8h3.24c.44,0,.8-.36.8-.8Zm0,3.7c0-.44-.36-.8-.8-.8h-3.24c-.44,0-.8.36-.8.8s.36.8.8.8h3.24c.44,0,.8-.36.8-.8Zm12.11-25.89c0-.44-.36-.8-.8-.8h-8.49c-.44,0-.8.36-.8.8s.36.8.8.8h8.49c.44,0,.8-.36.8-.8Zm0,3.7c0-.44-.36-.8-.8-.8h-8.49c-.44,0-.8.36-.8.8s.36.8.8.8h8.49c.44,0,.8-.36.8-.8Zm0,3.7c0-.44-.36-.8-.8-.8h-8.49c-.44,0-.8.36-.8.8s.36.8.8.8h8.49c.44,0,.8-.36.8-.8Zm0,3.7c0-.44-.36-.8-.8-.8h-8.49c-.44,0-.8.36-.8.8s.36.8.8.8h8.49c.44,0,.8-.36.8-.8Zm0,3.7c0-.44-.36-.8-.8-.8h-8.49c-.44,0-.8.36-.8.8s.36.8.8.8h8.49c.44,0,.8-.36.8-.8Zm10.17,3.7c0-.44-.36-.8-.8-.8h-8.49c-.44,0-.8.36-.8.8s.36.8.8.8h8.49c.44,0,.8-.36.8-.8Zm0,3.7c0-.44-.36-.8-.8-.8h-8.49c-.44,0-.8.36-.8.8s.36.8.8.8h8.49c.44,0,.8-.36.8-.8Zm0,3.7c0-.44-.36-.8-.8-.8h-8.49c-.44,0-.8.36-.8.8s.36.8.8.8h8.49c.44,0,.8-.36.8-.8Zm-6.43-25.89c0-.51-.41-.92-.92-.92s-.92.41-.92.92.41.92.92.92.92-.41.92-.92Zm2.77,0c0-.51-.41-.92-.92-.92s-.92.41-.92.92.41.92.92.92.92-.41.92-.92Zm2.77,0c0-.51-.41-.92-.92-.92s-.92.41-.92.92.41.92.92.92.92-.41.92-.92Zm2.77,0c0-.51-.41-.92-.92-.92s-.92.41-.92.92.41.92.92.92.92-.41.92-.92Zm2.77,0c0-.51-.41-.92-.92-.92s-.92.41-.92.92.41.92.92.92.92-.41.92-.92Zm2.77,0c0-.51-.41-.92-.92-.92s-.92.41-.92.92.41.92.92.92.92-.41.92-.92Zm-13.87,7.4c0-.51-.41-.92-.92-.92s-.92.41-.92.92.41.92.92.92.92-.41.92-.92Zm2.77,0c0-.51-.41-.92-.92-.92s-.92.41-.92.92.41.92.92.92.92-.41.92-.92Zm2.77,0c0-.51-.41-.92-.92-.92s-.92.41-.92.92.41.92.92.92.92-.41.92-.92Zm2.77,0c0-.51-.41-.92-.92-.92s-.92.41-.92.92.41.92.92.92.92-.41.92-.92Zm2.77,0c0-.51-.41-.92-.92-.92s-.92.41-.92.92.41.92.92.92.92-.41.92-.92Zm2.77,0c0-.51-.41-.92-.92-.92s-.92.41-.92.92.41.92.92.92.92-.41.92-.92Zm-4.39,10.63c0-.51-.41-.92-.92-.92s-.92.41-.92.92.41.92.92.92.92-.41.92-.92Zm2.77,0c0-.51-.41-.92-.92-.92s-.92.41-.92.92.41.92.92.92.92-.41.92-.92Zm2.77,0c0-.51-.41-.92-.92-.92s-.92.41-.92.92.41.92.92.92.92-.41.92-.92Zm2.77,0c0-.51-.41-.92-.92-.92s-.92.41-.92.92.41.92.92.92.92-.41.92-.92Zm2.77,0c0-.51-.41-.92-.92-.92s-.92.41-.92.92.41.92.92.92.92-.41.92-.92Zm2.77,0c0-.51-.41-.92-.92-.92s-.92.41-.92.92.41.92.92.92.92-.41.92-.92Zm-13.87,7.63c0-.51-.41-.92-.92-.92s-.92.41-.92.92.41.92.92.92.92-.41.92-.92Zm2.77,0c0-.51-.41-.92-.92-.92s-.92.41-.92.92.41.92.92.92.92-.41.92-.92Zm2.77,0c0-.51-.41-.92-.92-.92s-.92.41-.92.92.41.92.92.92.92-.41.92-.92Zm2.77,0c0-.51-.41-.92-.92-.92s-.92.41-.92.92.41.92.92.92.92-.41.92-.92Zm2.77,0c0-.51-.41-.92-.92-.92s-.92.41-.92.92.41.92.92.92.92-.41.92-.92Zm2.77,0c0-.51-.41-.92-.92-.92s-.92.41-.92.92.41.92.92.92.92-.41.92-.92Z"/>
        <path class="cls-1" d="m93.54,95.75h-3.24c-.44,0-.8-.36-.8-.8s.36-.8.8-.8h3.24c.44,0,.8.36.8.8s-.36.8-.8.8Zm.8,2.9c0-.44-.36-.8-.8-.8h-3.24c-.44,0-.8.36-.8.8s.36.8.8.8h3.24c.44,0,.8-.36.8-.8Zm0,3.7c0-.44-.36-.8-.8-.8h-3.24c-.44,0-.8.36-.8.8s.36.8.8.8h3.24c.44,0,.8-.36.8-.8Zm0,3.7c0-.44-.36-.8-.8-.8h-3.24c-.44,0-.8.36-.8.8s.36.8.8.8h3.24c.44,0,.8-.36.8-.8Zm0,3.7c0-.44-.36-.8-.8-.8h-3.24c-.44,0-.8.36-.8.8s.36.8.8.8h3.24c.44,0,.8-.36.8-.8Zm0,3.7c0-.44-.36-.8-.8-.8h-3.24c-.44,0-.8.36-.8.8s.36.8.8.8h3.24c.44,0,.8-.36.8-.8Zm0,3.7c0-.44-.36-.8-.8-.8h-3.24c-.44,0-.8.36-.8.8s.36.8.8.8h3.24c.44,0,.8-.36.8-.8Zm0,3.7c0-.44-.36-.8-.8-.8h-3.24c-.44,0-.8.36-.8.8s.36.8.8.8h3.24c.44,0,.8-.36.8-.8Zm12.11-25.89c0-.44-.36-.8-.8-.8h-8.49c-.44,0-.8.36-.8.8s.36.8.8.8h8.49c.44,0,.8-.36.8-.8Zm0,3.7c0-.44-.36-.8-.8-.8h-8.49c-.44,0-.8.36-.8.8s.36.8.8.8h8.49c.44,0,.8-.36.8-.8Zm0,3.7c0-.44-.36-.8-.8-.8h-8.49c-.44,0-.8.36-.8.8s.36.8.8.8h8.49c.44,0,.8-.36.8-.8Zm0,3.7c0-.44-.36-.8-.8-.8h-8.49c-.44,0-.8.36-.8.8s.36.8.8.8h8.49c.44,0,.8-.36.8-.8Zm0,3.7c0-.44-.36-.8-.8-.8h-8.49c-.44,0-.8.36-.8.8s.36.8.8.8h8.49c.44,0,.8-.36.8-.8Zm10.17,3.7c0-.44-.36-.8-.8-.8h-8.49c-.44,0-.8.36-.8.8s.36.8.8.8h8.49c.44,0,.8-.36.8-.8Zm0,3.7c0-.44-.36-.8-.8-.8h-8.49c-.44,0-.8.36-.8.8s.36.8.8.8h8.49c.44,0,.8-.36.8-.8Zm0,3.7c0-.44-.36-.8-.8-.8h-8.49c-.44,0-.8.36-.8.8s.36.8.8.8h8.49c.44,0,.8-.36.8-.8Zm-6.43-25.89c0-.51-.41-.92-.92-.92s-.92.41-.92.92.41.92.92.92.92-.41.92-.92Zm2.77,0c0-.51-.41-.92-.92-.92s-.92.41-.92.92.41.92.92.92.92-.41.92-.92Zm2.77,0c0-.51-.41-.92-.92-.92s-.92.41-.92.92.41.92.92.92.92-.41.92-.92Zm2.77,0c0-.51-.41-.92-.92-.92s-.92.41-.92.92.41.92.92.92.92-.41.92-.92Zm2.77,0c0-.51-.41-.92-.92-.92s-.92.41-.92.92.41.92.92.92.92-.41.92-.92Zm2.77,0c0-.51-.41-.92-.92-.92s-.92.41-.92.92.41.92.92.92.92-.41.92-.92Zm-13.87,7.4c0-.51-.41-.92-.92-.92s-.92.41-.92.92.41.92.92.92.92-.41.92-.92Zm2.77,0c0-.51-.41-.92-.92-.92s-.92.41-.92.92.41.92.92.92.92-.41.92-.92Zm2.77,0c0-.51-.41-.92-.92-.92s-.92.41-.92.92.41.92.92.92.92-.41.92-.92Zm2.77,0c0-.51-.41-.92-.92-.92s-.92.41-.92.92.41.92.92.92.92-.41.92-.92Zm2.77,0c0-.51-.41-.92-.92-.92s-.92.41-.92.92.41.92.92.92.92-.41.92-.92Zm2.77,0c0-.51-.41-.92-.92-.92s-.92.41-.92.92.41.92.92.92.92-.41.92-.92Zm-4.39,10.63c0-.51-.41-.92-.92-.92s-.92.41-.92.92.41.92.92.92.92-.41.92-.92Zm2.77,0c0-.51-.41-.92-.92-.92s-.92.41-.92.92.41.92.92.92.92-.41.92-.92Zm2.77,0c0-.51-.41-.92-.92-.92s-.92.41-.92.92.41.92.92.92.92-.41.92-.92Zm2.77,0c0-.51-.41-.92-.92-.92s-.92.41-.92.92.41.92.92.92.92-.41.92-.92Zm2.77,0c0-.51-.41-.92-.92-.92s-.92.41-.92.92.41.92.92.92.92-.41.92-.92Zm2.77,0c0-.51-.41-.92-.92-.92s-.92.41-.92.92.41.92.92.92.92-.41.92-.92Zm-13.87,7.63c0-.51-.41-.92-.92-.92s-.92.41-.92.92.41.92.92.92.92-.41.92-.92Zm2.77,0c0-.51-.41-.92-.92-.92s-.92.41-.92.92.41.92.92.92.92-.41.92-.92Zm2.77,0c0-.51-.41-.92-.92-.92s-.92.41-.92.92.41.92.92.92.92-.41.92-.92Zm2.77,0c0-.51-.41-.92-.92-.92s-.92.41-.92.92.41.92.92.92.92-.41.92-.92Zm2.77,0c0-.51-.41-.92-.92-.92s-.92.41-.92.92.41.92.92.92.92-.41.92-.92Zm2.77,0c0-.51-.41-.92-.92-.92s-.92.41-.92.92.41.92.92.92.92-.41.92-.92Z"/>
        <path class="cls-1" d="m93.54,126.06h-3.24c-.44,0-.8-.36-.8-.8s.36-.8.8-.8h3.24c.44,0,.8.36.8.8s-.36.8-.8.8Zm.8,2.9c0-.44-.36-.8-.8-.8h-3.24c-.44,0-.8.36-.8.8s.36.8.8.8h3.24c.44,0,.8-.36.8-.8Zm0,3.7c0-.44-.36-.8-.8-.8h-3.24c-.44,0-.8.36-.8.8s.36.8.8.8h3.24c.44,0,.8-.36.8-.8Zm0,3.7c0-.44-.36-.8-.8-.8h-3.24c-.44,0-.8.36-.8.8s.36.8.8.8h3.24c.44,0,.8-.36.8-.8Zm0,3.7c0-.44-.36-.8-.8-.8h-3.24c-.44,0-.8.36-.8.8s.36.8.8.8h3.24c.44,0,.8-.36.8-.8Zm0,3.7c0-.44-.36-.8-.8-.8h-3.24c-.44,0-.8.36-.8.8s.36.8.8.8h3.24c.44,0,.8-.36.8-.8Zm0,3.7c0-.44-.36-.8-.8-.8h-3.24c-.44,0-.8.36-.8.8s.36.8.8.8h3.24c.44,0,.8-.36.8-.8Zm0,3.7c0-.44-.36-.8-.8-.8h-3.24c-.44,0-.8.36-.8.8s.36.8.8.8h3.24c.44,0,.8-.36.8-.8Zm12.11-25.89c0-.44-.36-.8-.8-.8h-8.49c-.44,0-.8.36-.8.8s.36.8.8.8h8.49c.44,0,.8-.36.8-.8Zm0,3.7c0-.44-.36-.8-.8-.8h-8.49c-.44,0-.8.36-.8.8s.36.8.8.8h8.49c.44,0,.8-.36.8-.8Zm0,3.7c0-.44-.36-.8-.8-.8h-8.49c-.44,0-.8.36-.8.8s.36.8.8.8h8.49c.44,0,.8-.36.8-.8Zm0,3.7c0-.44-.36-.8-.8-.8h-8.49c-.44,0-.8.36-.8.8s.36.8.8.8h8.49c.44,0,.8-.36.8-.8Zm0,3.7c0-.44-.36-.8-.8-.8h-8.49c-.44,0-.8.36-.8.8s.36.8.8.8h8.49c.44,0,.8-.36.8-.8Zm10.17,3.7c0-.44-.36-.8-.8-.8h-8.49c-.44,0-.8.36-.8.8s.36.8.8.8h8.49c.44,0,.8-.36.8-.8Zm0,3.7c0-.44-.36-.8-.8-.8h-8.49c-.44,0-.8.36-.8.8s.36.8.8.8h8.49c.44,0,.8-.36.8-.8Zm0,3.7c0-.44-.36-.8-.8-.8h-8.49c-.44,0-.8.36-.8.8s.36.8.8.8h8.49c.44,0,.8-.36.8-.8Zm-6.43-25.89c0-.51-.41-.92-.92-.92s-.92.41-.92.92.41.92.92.92.92-.41.92-.92Zm2.77,0c0-.51-.41-.92-.92-.92s-.92.41-.92.92.41.92.92.92.92-.41.92-.92Zm2.77,0c0-.51-.41-.92-.92-.92s-.92.41-.92.92.41.92.92.92.92-.41.92-.92Zm2.77,0c0-.51-.41-.92-.92-.92s-.92.41-.92.92.41.92.92.92.92-.41.92-.92Zm2.77,0c0-.51-.41-.92-.92-.92s-.92.41-.92.92.41.92.92.92.92-.41.92-.92Zm2.77,0c0-.51-.41-.92-.92-.92s-.92.41-.92.92.41.92.92.92.92-.41.92-.92Zm-13.87,7.4c0-.51-.41-.92-.92-.92s-.92.41-.92.92.41.92.92.92.92-.41.92-.92Zm2.77,0c0-.51-.41-.92-.92-.92s-.92.41-.92.92.41.92.92.92.92-.41.92-.92Zm2.77,0c0-.51-.41-.92-.92-.92s-.92.41-.92.92.41.92.92.92.92-.41.92-.92Zm2.77,0c0-.51-.41-.92-.92-.92s-.92.41-.92.92.41.92.92.92.92-.41.92-.92Zm2.77,0c0-.51-.41-.92-.92-.92s-.92.41-.92.92.41.92.92.92.92-.41.92-.92Zm2.77,0c0-.51-.41-.92-.92-.92s-.92.41-.92.92.41.92.92.92.92-.41.92-.92Zm-4.39,10.63c0-.51-.41-.92-.92-.92s-.92.41-.92.92.41.92.92.92.92-.41.92-.92Zm2.77,0c0-.51-.41-.92-.92-.92s-.92.41-.92.92.41.92.92.92.92-.41.92-.92Zm2.77,0c0-.51-.41-.92-.92-.92s-.92.41-.92.92.41.92.92.92.92-.41.92-.92Zm2.77,0c0-.51-.41-.92-.92-.92s-.92.41-.92.92.41.92.92.92.92-.41.92-.92Zm2.77,0c0-.51-.41-.92-.92-.92s-.92.41-.92.92.41.92.92.92.92-.41.92-.92Zm2.77,0c0-.51-.41-.92-.92-.92s-.92.41-.92.92.41.92.92.92.92-.41.92-.92Zm-13.87,7.63c0-.51-.41-.92-.92-.92s-.92.41-.92.92.41.92.92.92.92-.41.92-.92Zm2.77,0c0-.51-.41-.92-.92-.92s-.92.41-.92.92.41.92.92.92.92-.41.92-.92Zm2.77,0c0-.51-.41-.92-.92-.92s-.92.41-.92.92.41.92.92.92.92-.41.92-.92Zm2.77,0c0-.51-.41-.92-.92-.92s-.92.41-.92.92.41.92.92.92.92-.41.92-.92Zm2.77,0c0-.51-.41-.92-.92-.92s-.92.41-.92.92.41.92.92.92.92-.41.92-.92Zm2.77,0c0-.51-.41-.92-.92-.92s-.92.41-.92.92.41.92.92.92.92-.41.92-.92Z"/>
      </g>
    </g>
  </g>
  <g id="Chair">
    <path class="cls-11" d="m43.18,298.59s-7-95-12.5-118.5,21.5-28.5,60.5-31.5,57-.5,65.5,5,12.27,70.44,18,93.5c5.73,23.06,10,53,10,53l-141.5-1.5Z"/>
  </g>
  <g id="Plants">
    <path class="cls-15" d="m387.95,219.86c-5.36,6.69-7.97,10.42-9.1,12.12,1.06-5.81,2.92-13.04,6.1-21.6,2.07-5.56,3.24-11.22,3.72-16.88-.26.14-.44.24-.5.27l-.47-.88c.18-.1,18.42-9.78,23.58-18.91l.87.49c-4.66,8.25-19.06,16.59-23,18.77,3.74-.36,15.42-2.14,22.37-10.72,8.35-10.32,6.88-23.09,6.88-23.09,0,0-15.72,10.81-22.11,19.16-4.06,5.31-6.33,9.82-7.45,12.41.34-6.84-.29-13.66-1.55-20.31,5.25-4.13,24.56-20.02,26.68-31.9,2.46-13.76-.98-37.34-.98-37.34,0,0-2.46,6.39-6.88,14.25-4.42,7.86-18.18,20.15-20.64,33.41-.69,3.71-.94,7.09-.97,10.06-2.25-7.72-5.1-15.07-7.94-21.75-.78-1.83-1.44-3.8-1.97-5.85h0s-.43-.26-.43-.26c.09-.15,8.94-15.09,8.94-19.38h1c0,4.02-6.76,15.9-8.62,19.11,3.09-1.86,8.12-5.67,10.02-11.59,2.82-8.79-1.35-16.71-1.35-16.71,0,0-7.47,10.97-9.51,17.99-1.28,4.42-1.63,7.89-1.7,9.86-1.43-3.64-3.62-8.58-6.14-11.94-4.42-5.9-7.37-14.74-7.37-14.74,0,0-5.4,9.34-1.47,19.16,3.23,8.07,12.42,11.17,15.6,12.02.36,1.07.74,2.11,1.17,3.11,3.87,9.1,7.75,19.42,10.07,30.24-2.29-3.05-6.61-8.42-10.7-11.42-5.94-4.36-11.33-11.97-11.33-11.97,0,0-2.47,10.5,4.14,18.77,5.4,6.75,15.02,7.09,18.36,6.98,2.27,11.9,2.53,24.32-1.32,36.32-.25-2.33-1.65-8.67-9.36-15.77-9.74-8.96-29.24-37.6-29.24-37.6,0,0,1.56,33.81,10.9,44.93,8.55,10.18,24.72,9.59,27.38,9.42-.18.53-.36,1.06-.55,1.59-6.16,16.53-7.45,28.12-7.6,34.25h-11.61v53.56h31.94v-53.56h-18.3c.07-2.52.34-6.02,1.08-10.42-.2.06-.32.09-.33.1l-.27-.96c.2-.05,20.21-5.69,34.2-20.08l.72.7c-11.29,11.61-26.43,17.59-32.23,19.58,5.77-.72,19.89-2.84,26.44-7.08,8.35-5.4,15.72-21.62,15.72-21.62,0,0-27.02,5.9-34.89,15.72Zm-15.2-87.02c-.1-.05-10.35-4.83-12.82-17.16l.98-.2c2.37,11.83,12.15,16.4,12.25,16.44l-.41.91Zm14.14,38.16l-.23.34-.38-.15c-.55-.22-13.63-5.61-18.95-13.38l.83-.56c4.65,6.8,15.91,11.9,18.12,12.86,1.69-2.59,12.32-19.08,16.02-29.44l.94.34c-4.05,11.33-16.23,29.82-16.35,30Zm-4.65,36.68c-.16-.06-15.74-5.92-22.67-19.38l.89-.46c6.76,13.11,21.97,18.84,22.12,18.9l-.35.94Z"/>
  </g>
  <g id="Character">
    <g>
      <g>
        <path class="cls-1" d="m164.16,162.52s-28.51,6.05-52.27,19.44c-23.76,13.39-42.33,24.19-42.33,29.37s-9.5,87.26-9.5,87.26h215.99s-21.17-45.36-24.62-64.8c-3.46-19.44-7.34-31.97-18.57-44.49-11.23-12.53-44.06-28.51-68.68-26.78Z"/>
        <g class="cls-13">
          <path class="cls-12" d="m80.43,241.66c3.2-2.28,9.59,15.08,11.42,10.97,1.83-4.11-11.42-24.67-12.34-31.98s7.77-8.22,17.82-15.08,19.19-12.34,19.19-3.2,4.11,26.04,7.31,19.19c3.2-6.85,10.05-15.53,10.51-3.66.46,11.88,0,23.76,1.37,23.76s13.71-12.79,16.9-19.19c3.2-6.4-3.66-22.84-3.66-30.15s6.4-17.36,6.4-17.36l.41-10.34c-10.23,2.8-28.09,8.45-43.87,17.34-23.76,13.39-42.33,24.19-42.33,29.37s-9.5,87.26-9.5,87.26h11.82c2.2-20.35,6.29-55.31,8.55-56.92Z"/>
          <path class="cls-2" d="m80.43,241.66c3.2-2.28,9.59,15.08,11.42,10.97,1.83-4.11-11.42-24.67-12.34-31.98s7.77-8.22,17.82-15.08,19.19-12.34,19.19-3.2,4.11,26.04,7.31,19.19c3.2-6.85,10.05-15.53,10.51-3.66.46,11.88,0,23.76,1.37,23.76s13.71-12.79,16.9-19.19c3.2-6.4-3.66-22.84-3.66-30.15s6.4-17.36,6.4-17.36l.41-10.34c-10.23,2.8-28.09,8.45-43.87,17.34-23.76,13.39-42.33,24.19-42.33,29.37s-9.5,87.26-9.5,87.26h11.82c2.2-20.35,6.29-55.31,8.55-56.92Z"/>
          <path class="cls-11" d="m218.1,182.68s15,7.33,20.67,14.67c0,0-5.67-11.33-19.67-18l-1,3.33Z"/>
        </g>
        <path class="cls-10" d="m164.16,162.52s-28.51,6.05-52.27,19.44c-23.76,13.39-42.33,24.19-42.33,29.37s-9.5,87.26-9.5,87.26h215.99s-21.17-45.36-24.62-64.8c-3.46-19.44-7.34-31.97-18.57-44.49-11.23-12.53-44.06-28.51-68.68-26.78Z"/>
      </g>
      <g>
        <g>
          <path class="cls-1" d="m154.66,165.54s-12.53,6.91-13.39,22.46c-.86,15.55,0,31.53-.86,40.17-.86,8.64-6.91,15.55-2.16,15.12,4.75-.43,15.55-17.71,19.44-17.71s5.18,8.21,6.91,10.8c1.73,2.59,7.79,3.68,7.79,3.68,0,0,5.6-6.7,5.6-8.86s-1.73-9.5,3.02-8.64c4.75.86,15.12,17.28,15.55,12.1.43-5.18-4.75-12.96-4.75-25.49s-6.05-27.21-14.69-36.29c-8.64-9.07-13.61-8.01-22.46-7.34Z"/>
          <g class="cls-7">
            <path class="cls-12" d="m155.73,165.46c-.35.03-.71.06-1.07.08,0,0-12.53,6.91-13.39,22.46-.86,15.55,0,31.53-.86,40.17-.56,5.56-3.25,10.39-3.84,13.03,3.17-2.33,13.21-13.05,16.05-18.73,3.2-6.4-3.66-22.84-3.66-30.15s6.4-17.36,6.4-17.36l.38-9.5Z"/>
            <path class="cls-2" d="m155.73,165.46c-.35.03-.71.06-1.07.08,0,0-12.53,6.91-13.39,22.46-.86,15.55,0,31.53-.86,40.17-.56,5.56-3.25,10.39-3.84,13.03,3.17-2.33,13.21-13.05,16.05-18.73,3.2-6.4-3.66-22.84-3.66-30.15s6.4-17.36,6.4-17.36l.38-9.5Z"/>
          </g>
          <path class="cls-10" d="m154.66,165.54s-12.53,6.91-13.39,22.46c-.86,15.55,0,31.53-.86,40.17-.86,8.64-6.91,15.55-2.16,15.12,4.75-.43,15.55-17.71,19.44-17.71s5.18,8.21,6.91,10.8c1.73,2.59,7.79,3.68,7.79,3.68,0,0,5.6-6.7,5.6-8.86s-1.73-9.5,3.02-8.64c4.75.86,15.12,17.28,15.55,12.1.43-5.18-4.75-12.96-4.75-25.49s-6.05-27.21-14.69-36.29c-8.64-9.07-13.61-8.01-22.46-7.34Z"/>
        </g>
        <g>
          <path class="cls-1" d="m158.26,165.65s-5.18,11.3-5.18,24.96,7.06,27.78,9.89,34.38c2.83,6.59,9.42,15.07,9.42,15.07,0,0-.47-17.42,3.77-25.9,4.24-8.48,8.01-14.6,8.01-14.6,0,0-5.18-5.18-12.72-16.95-7.53-11.77-13.19-16.95-13.19-16.95Z"/>
          <g class="cls-5">
            <path class="cls-12" d="m180.89,205.21l-1.78-11.64c-2.07-2.68-4.68-6.3-7.66-10.96-7.53-11.77-13.19-16.95-13.19-16.95,0,0-5.18,11.3-5.18,24.96,0,5.35,1.09,10.76,2.58,15.77l25.03-.81c.07-.12.13-.24.2-.36Z"/>
            <path class="cls-2" d="m180.89,205.21l-1.78-11.64c-2.07-2.68-4.68-6.3-7.66-10.96-7.53-11.77-13.19-16.95-13.19-16.95,0,0-5.18,11.3-5.18,24.96,0,5.35,1.09,10.76,2.58,15.77l25.03-.81c.07-.12.13-.24.2-.36Z"/>
            <path class="cls-11" d="m171.45,182.61c-7.53-11.77-13.19-16.95-13.19-16.95,0,0-5.18,11.3-5.18,24.96,0,2.8.31,5.62.81,8.39l21.08.66,5.15-4.81c-2.2-2.76-5.18-6.79-8.67-12.25Z"/>
          </g>
          <path class="cls-10" d="m158.26,165.65s-5.18,11.3-5.18,24.96,7.06,27.78,9.89,34.38c2.83,6.59,9.42,15.07,9.42,15.07,0,0-.47-17.42,3.77-25.9,4.24-8.48,8.01-14.6,8.01-14.6,0,0-5.18-5.18-12.72-16.95-7.53-11.77-13.19-16.95-13.19-16.95Z"/>
        </g>
        <g>
          <path class="cls-10" d="m126.58,195.78s9.5-22.89,25.05-28.51"/>
          <path class="cls-10" d="m85.54,214.78s12.96,21.17,14.69,39.31"/>
          <path class="cls-10" d="m101.53,234.22s4.32,27.21,4.32,41.04,2.16,23.33,2.16,23.33"/>
          <path class="cls-10" d="m105.42,269.21s3.89-15.55,3.46-32.4"/>
          <path class="cls-10" d="m223.78,234.65s1.3,15.55,4.32,34.56,4.75,28.51,4.75,28.51"/>
        </g>
      </g>
      <g>
        <path class="cls-4" d="m153.31,271.5s-9.14,18.62-10.5,21.33c-1.35,2.71-3.39,7.45-3.39,7.45h16.25s9.14-6.1,10.16-6.43c1.02-.34,6.77,0,10.84-1.69,4.06-1.69,8.13-6.1,12.19-7.11,4.06-1.02,9.48-2.71,11.17-2.71s7.45,1.69,11.17,1.69,8.47-3.72,5.42-5.42c-3.05-1.69-5.42-.68-9.48-2.71-4.06-2.03-5.42-2.71-9.48-2.03s-7.45-1.69-17.27-3.72c-9.82-2.03-20.99-2.71-27.09,1.35Z"/>
        <path class="cls-4" d="m181.68,261.1s5.33-4.54,9.71-2.35c4.39,2.19,2.35,16.29,3.45,21.93,1.1,5.64,2.35,8.61-.47,8.93-2.82.31-3.92-1.88-6.11-6.89-2.19-5.01-6.58-21.62-6.58-21.62Z"/>
        <path class="cls-4" d="m168.68,263.92s7.05-6.27,10.18-6.27,5.64,11.12,7.99,15.98,5.8,10.65,4.39,12.22c-1.41,1.57-4.39,2.19-6.89-.47-2.51-2.66-7.99-14.41-9.55-16.29-1.57-1.88-6.11-5.17-6.11-5.17Z"/>
        <path class="cls-4" d="m161.47,266.11s.47-2.19,7.21-2.19,12.53,9.4,16.6,11.59c4.07,2.19,2.82,3.13-.16,4.54s-4.86-.16-10.81-3.45c-5.95-3.29-12.84-10.49-12.84-10.49Z"/>
        <path class="cls-4" d="m153.99,281.66l4.74-7.79s3.72.68,6.09,2.71c2.37,2.03,6.77,6.1,12.19,6.1s7.11-1.69,5.08-3.39c-2.03-1.69-8.13-4.74-12.53-7.79-4.4-3.05-7.79-8.13-11.17-7.11-3.39,1.02-5.76,7.45-9.48,15.91"/>
      </g>
      <g>
        <g>
          <g>
            <path class="cls-1" d="m229.76,132.47s-1.31,19.35-3.4,26.15c-2.09,6.8-4.97,27.72-11.25,36.88-6.28,9.15-14.38,17-23.54,17.52s-21.45-15.69-28.51-26.15c-7.06-10.46-7.85-20.92-10.2-31.12-2.35-10.2-2.88-21.97.78-31.12s21.97-20.4,37.4-19.09c15.43,1.31,34.79,9.42,38.71,15.43,3.92,6.02,0,11.51,0,11.51Z"/>
            <g class="cls-14">
              <path class="cls-12" d="m153.65,124.62c-3.66,9.15-3.14,20.92-.78,31.12,2.35,10.2,3.14,20.66,10.2,31.12,7.06,10.46,19.35,26.68,28.51,26.15,3.68-.21,7.18-1.62,10.47-3.8-1.49.15-3.05.3-4.65.45-9.59.91-14.16-5.48-20.1-17.82s-2.28-19.65-4.57-21.93c-2.28-2.28-2.28-18.73-2.28-18.73,0,0,1.83-7.31,2.74-10.05s10.51-6.4,10.51-6.4c0,0,0,6.85,6.59,6.35,6.59-.5,11.23-7.72,11.23-7.72l-.92-26.33c-3.23-.73-6.46-1.26-9.53-1.52-15.43-1.31-33.74,9.94-37.4,19.09Z"/>
              <path class="cls-2" d="m153.65,124.62c-3.66,9.15-3.14,20.92-.78,31.12,2.35,10.2,3.14,20.66,10.2,31.12,7.06,10.46,19.35,26.68,28.51,26.15,3.68-.21,7.18-1.62,10.47-3.8-1.49.15-3.05.3-4.65.45-9.59.91-14.16-5.48-20.1-17.82s-2.28-19.65-4.57-21.93c-2.28-2.28-2.28-18.73-2.28-18.73,0,0,1.83-7.31,2.74-10.05s10.51-6.4,10.51-6.4c0,0,0,6.85,6.59,6.35,6.59-.5,11.23-7.72,11.23-7.72l-.92-26.33c-3.23-.73-6.46-1.26-9.53-1.52-15.43-1.31-33.74,9.94-37.4,19.09Z"/>
            </g>
            <path class="cls-10" d="m229.76,132.47s-1.31,19.35-3.4,26.15c-2.09,6.8-4.97,27.72-11.25,36.88-6.28,9.15-14.38,17-23.54,17.52s-21.45-15.69-28.51-26.15c-7.06-10.46-7.85-20.92-10.2-31.12-2.35-10.2-2.88-21.97.78-31.12s21.97-20.4,37.4-19.09c15.43,1.31,34.79,9.42,38.71,15.43,3.92,6.02,0,11.51,0,11.51Z"/>
          </g>
          <g>
            <path class="cls-10" d="m203.35,158.36s.26,13.34,7.06,16.74c0,0,1.57.52.78,2.35s-6.8,2.88-10.98-.26"/>
            <path class="cls-15" d="m209.13,147.03c-.43,0-.86-.19-1.16-.55-.53-.64-.44-1.58.2-2.11.24-.2,6.01-4.85,15.16-1.63.78.27,1.19,1.13.92,1.91-.27.78-1.13,1.19-1.91.92-7.57-2.66-12.21,1.07-12.26,1.11-.28.23-.62.34-.95.34Z"/>
            <path class="cls-15" d="m193.36,145.2c-.52,0-1.02-.27-1.3-.74-.16-.27-3.76-6.19-10.84-5.21-.82.11-1.58-.46-1.69-1.28-.11-.82.46-1.58,1.28-1.69,9.12-1.26,13.65,6.35,13.84,6.67.42.72.17,1.63-.54,2.05-.24.14-.5.2-.75.2Z"/>
            <line class="cls-10" x1="197.82" y1="191.56" x2="202.06" y2="191.56"/>
          </g>
        </g>
        <g>
          <path class="cls-15" d="m159.41,94.29s-17,5.49-18.31,12.29c-1.31,6.8,7.32,30.6,7.06,33.48s-2.88,5.23,0,9.42c2.88,4.18,8.11,10.46,10.2,7.06,2.09-3.4-.78-8.37,2.62-10.46,3.4-2.09,8.11-5.49,5.49-9.94-2.62-4.45-1.31-10.98,4.18-11.77,5.49-.78,10.2-4.45,7.32-.26-2.88,4.18-11.25,14.38-6.8,15.17,4.45.78,21.97-10.98,21.97-10.98,0,0-6.02,12.03-2.88,12.82,3.14.78,27.72-15.43,27.72-15.43,0,0,11.77,15.43,14.12,14.38s.78-9.68.78-9.68c0,0,1.83,11.51,5.49,12.03,3.66.52,8.63-5.75,7.06-9.68-1.57-3.92-4.18-9.42-4.18-9.42,0,0,5.23-1.31,7.32-3.66s1.83-2.62-2.62-3.4c-4.45-.78-7.85-5.75-12.03-10.2-4.18-4.45-10.98-10.46-10.98-10.46,0,0,7.85,3.4,3.66-.52-4.18-3.92-26.42-12.82-38.45-12.82s-16.48,6.28-16.48,6.28c0,0,2.09-7.85-.26-6.8-2.35,1.05-4.97,7.32-4.97,7.32,0,0-5.49-1.57-8.37.26-2.88,1.83-3.66,3.66-1.31,3.66s3.92.52,3.92.52l-1.31.78Z"/>
          <g class="cls-8">
            <g class="cls-6">
              <path class="cls-1" d="m158.36,156.53c2.09-3.4-.78-8.37,2.62-10.46,3.4-2.09,8.11-5.49,5.49-9.94-2.62-4.45-1.31-10.98,4.18-11.77,4.14-.59,7.82-2.81,8.17-2.09,1.78-2.44,2.53-4.3.01-3.55-4.86,1.46-19.92,3.89-18.46,8.75,1.46,4.86,2.43,7.29-1.46,8.75s-3.89,4.86-3.89,8.75c0,3.32-1.57,8.83-2.03,10.36,2.13,2.01,4.22,3.06,5.37,1.2Z"/>
              <path class="cls-1" d="m232.9,130.38l.35,4.87s.06.29.16.76c.02-2.2-.33-4.59-.46-5.37.3,1.74,2.12,11.28,5.45,11.76,3.66.52,8.63-5.75,7.06-9.68-.34-.85-.73-1.76-1.12-2.69-1.21,1.9-2.87,3.75-4.77,3.75-3.89,0-6.66-3.42-6.66-3.42Z"/>
              <path class="cls-1" d="m227.74,137.12c-3.22-7.24-6.76-16.62-8.58-19.36-2.92-4.37-13.12,11.66-21.86,17.01-3.56,2.18-6.14,3.13-7.77,3.15-.31,1.67-.21,2.95.75,3.19,3.14.78,27.72-15.43,27.72-15.43,0,0,5.51,7.22,9.74,11.45Z"/>
              <path class="cls-1" d="m170.15,136.44c-.48,1.51-.3,2.6,1.03,2.83,3.36.59,14.15-5.96,19.25-9.22,2.89-3.55,6.47-5.75,6.86-8.89.49-3.89-17.98,11.66-24.29,14.58-1.35.63-2.26.81-2.86.7Z"/>
            </g>
          </g>
          <path class="cls-10" d="m159.41,94.29s-17,5.49-18.31,12.29c-1.31,6.8,7.32,30.6,7.06,33.48s-2.88,5.23,0,9.42c2.88,4.18,8.11,10.46,10.2,7.06,2.09-3.4-.78-8.37,2.62-10.46,3.4-2.09,8.11-5.49,5.49-9.94-2.62-4.45-1.31-10.98,4.18-11.77,5.49-.78,10.2-4.45,7.32-.26-2.88,4.18-11.25,14.38-6.8,15.17,4.45.78,21.97-10.98,21.97-10.98,0,0-6.02,12.03-2.88,12.82,3.14.78,27.72-15.43,27.72-15.43,0,0,11.77,15.43,14.12,14.38s.78-9.68.78-9.68c0,0,1.83,11.51,5.49,12.03,3.66.52,8.63-5.75,7.06-9.68-1.57-3.92-4.18-9.42-4.18-9.42,0,0,5.23-1.31,7.32-3.66s1.83-2.62-2.62-3.4c-4.45-.78-7.85-5.75-12.03-10.2-4.18-4.45-10.98-10.46-10.98-10.46,0,0,7.85,3.4,3.66-.52-4.18-3.92-26.42-12.82-38.45-12.82s-16.48,6.28-16.48,6.28c0,0,2.09-7.85-.26-6.8-2.35,1.05-4.97,7.32-4.97,7.32,0,0-5.49-1.57-8.37.26-2.88,1.83-3.66,3.66-1.31,3.66s3.92.52,3.92.52l-1.31.78Z"/>
        </g>
        <g>
          <path class="cls-15" d="m198.06,148.03s-3.82-4.11-14.1-3.82c-10.28.29-17.62,2.06-19.68,3.23-2.06,1.18-.88,2.64-.29,4.7.59,2.06,2.06,11.75,4.41,15.57,2.35,3.82,8.52,7.05,12.63,7.05s6.46-.88,10.87-4.11,7.34-14.98,7.64-15.86c.29-.88,0-2.64,2.94-1.76,2.94.88,3.23,13.81,4.11,16.45.88,2.64,6.76,6.17,11.46,6.17s9.11-2.35,12.92-9.11c3.82-6.76,2.64-13.22,2.64-13.22,0,0,4.11-3.23.88-4.41-3.23-1.17-14.34-4.26-21.44-2.06-8.52,2.64-12.92,2.06-14.98,1.17Z"/>
          <path class="cls-15" d="m165.75,147.74l-19.68,2.64v2.35l19.39-1.17s-1.76-2.94.29-3.82Z"/>
          <g>
            <path class="cls-12" d="m218.03,172.78c-5.77,0-8.71-3.06-9.34-8.37-.77-6.35-1.45-10.79-3.45-12.92,2.57-.27,5.47-.91,8.66-1.9,1.38-.43,3.09-.65,5.08-.65,4.78,0,9.97,1.24,12.87,2.11,0,0-1.35,1.08-1.35,1.08l.3,1.69s.91,5.59-2.32,11.3c-3.88,6.86-7.81,7.65-10.44,7.65Zm-37-.88c-3.01,0-8.31-2.62-10.19-5.69-1.51-2.45-2.77-8.62-3.44-11.93-.27-1.34-.47-2.31-.65-2.92-.14-.49-.3-.95-.46-1.38-.03-.08-.06-.17-.09-.25,2.31-.94,8.85-2.38,17.86-2.64.33,0,.65-.01.96-.01,7.89,0,10.93,2.89,10.96,2.92l.41.44.56.24c.37.16.76.3,1.17.42-.57.58-1.04,1.43-1.27,2.67l-.04.19s-.09.29-.19.64c-2.92,10.32-5.45,13.06-6.41,13.75-4.15,3.04-5.93,3.56-9.17,3.56Z"/>
            <path class="cls-15" d="m174.1,151.86h-1.51c-.21,0-.37-.17-.37-.37s.17-.37.37-.37h1.51c.21,0,.37.17.37.37s-.17.37-.37.37Zm.37,1.35c0-.21-.17-.37-.37-.37h-1.51c-.21,0-.37.17-.37.37s.17.37.37.37h1.51c.21,0,.37-.17.37-.37Zm0,1.72c0-.21-.17-.37-.37-.37h-1.51c-.21,0-.37.17-.37.37s.17.37.37.37h1.51c.21,0,.37-.17.37-.37Zm0,1.72c0-.21-.17-.37-.37-.37h-1.51c-.21,0-.37.17-.37.37s.17.37.37.37h1.51c.21,0,.37-.17.37-.37Zm0,1.72c0-.21-.17-.37-.37-.37h-1.51c-.21,0-.37.17-.37.37s.17.37.37.37h1.51c.21,0,.37-.17.37-.37Zm0,1.72c0-.21-.17-.37-.37-.37h-1.51c-.21,0-.37.17-.37.37s.17.37.37.37h1.51c.21,0,.37-.17.37-.37Zm0,1.72c0-.21-.17-.37-.37-.37h-1.51c-.21,0-.37.17-.37.37s.17.37.37.37h1.51c.21,0,.37-.17.37-.37Zm0,1.72c0-.21-.17-.37-.37-.37h-1.51c-.21,0-.37.17-.37.37s.17.37.37.37h1.51c.21,0,.37-.17.37-.37Zm5.63-12.05c0-.21-.17-.37-.37-.37h-3.95c-.21,0-.37.17-.37.37s.17.37.37.37h3.95c.21,0,.37-.17.37-.37Zm0,1.72c0-.21-.17-.37-.37-.37h-3.95c-.21,0-.37.17-.37.37s.17.37.37.37h3.95c.21,0,.37-.17.37-.37Zm0,1.72c0-.21-.17-.37-.37-.37h-3.95c-.21,0-.37.17-.37.37s.17.37.37.37h3.95c.21,0,.37-.17.37-.37Zm0,1.72c0-.21-.17-.37-.37-.37h-3.95c-.21,0-.37.17-.37.37s.17.37.37.37h3.95c.21,0,.37-.17.37-.37Zm0,1.72c0-.21-.17-.37-.37-.37h-3.95c-.21,0-.37.17-.37.37s.17.37.37.37h3.95c.21,0,.37-.17.37-.37Zm4.73,1.72c0-.21-.17-.37-.37-.37h-3.95c-.21,0-.37.17-.37.37s.17.37.37.37h3.95c.21,0,.37-.17.37-.37Zm0,1.72c0-.21-.17-.37-.37-.37h-3.95c-.21,0-.37.17-.37.37s.17.37.37.37h3.95c.21,0,.37-.17.37-.37Zm0,1.72c0-.21-.17-.37-.37-.37h-3.95c-.21,0-.37.17-.37.37s.17.37.37.37h3.95c.21,0,.37-.17.37-.37Zm-2.99-12.05c0-.24-.19-.43-.43-.43s-.43.19-.43.43.19.43.43.43.43-.19.43-.43Zm1.29,0c0-.24-.19-.43-.43-.43s-.43.19-.43.43.19.43.43.43.43-.19.43-.43Zm1.29,0c0-.24-.19-.43-.43-.43s-.43.19-.43.43.19.43.43.43.43-.19.43-.43Zm1.29,0c0-.24-.19-.43-.43-.43s-.43.19-.43.43.19.43.43.43.43-.19.43-.43Zm1.29,0c0-.24-.19-.43-.43-.43s-.43.19-.43.43.19.43.43.43.43-.19.43-.43Zm1.29,0c0-.24-.19-.43-.43-.43s-.43.19-.43.43.19.43.43.43.43-.19.43-.43Zm-6.45,3.44c0-.24-.19-.43-.43-.43s-.43.19-.43.43.19.43.43.43.43-.19.43-.43Zm1.29,0c0-.24-.19-.43-.43-.43s-.43.19-.43.43.19.43.43.43.43-.19.43-.43Zm1.29,0c0-.24-.19-.43-.43-.43s-.43.19-.43.43.19.43.43.43.43-.19.43-.43Zm1.29,0c0-.24-.19-.43-.43-.43s-.43.19-.43.43.19.43.43.43.43-.19.43-.43Zm1.29,0c0-.24-.19-.43-.43-.43s-.43.19-.43.43.19.43.43.43.43-.19.43-.43Zm1.29,0c0-.24-.19-.43-.43-.43s-.43.19-.43.43.19.43.43.43.43-.19.43-.43Zm-2.04,4.95c0-.24-.19-.43-.43-.43s-.43.19-.43.43.19.43.43.43.43-.19.43-.43Zm1.29,0c0-.24-.19-.43-.43-.43s-.43.19-.43.43.19.43.43.43.43-.19.43-.43Zm1.29,0c0-.24-.19-.43-.43-.43s-.43.19-.43.43.19.43.43.43.43-.19.43-.43Zm1.29,0c0-.24-.19-.43-.43-.43s-.43.19-.43.43.19.43.43.43.43-.19.43-.43Zm1.29,0c0-.24-.19-.43-.43-.43s-.43.19-.43.43.19.43.43.43.43-.19.43-.43Zm1.29,0c0-.24-.19-.43-.43-.43s-.43.19-.43.43.19.43.43.43.43-.19.43-.43Zm-6.45,3.55c0-.24-.19-.43-.43-.43s-.43.19-.43.43.19.43.43.43.43-.19.43-.43Zm1.29,0c0-.24-.19-.43-.43-.43s-.43.19-.43.43.19.43.43.43.43-.19.43-.43Zm1.29,0c0-.24-.19-.43-.43-.43s-.43.19-.43.43.19.43.43.43.43-.19.43-.43Zm1.29,0c0-.24-.19-.43-.43-.43s-.43.19-.43.43.19.43.43.43.43-.19.43-.43Zm1.29,0c0-.24-.19-.43-.43-.43s-.43.19-.43.43.19.43.43.43.43-.19.43-.43Zm1.29,0c0-.24-.19-.43-.43-.43s-.43.19-.43.43.19.43.43.43.43-.19.43-.43Z"/>
            <path class="cls-15" d="m210.89,151.86h-1.51c-.21,0-.37-.17-.37-.37s.17-.37.37-.37h1.51c.21,0,.37.17.37.37s-.17.37-.37.37Zm.37,1.35c0-.21-.17-.37-.37-.37h-1.51c-.21,0-.37.17-.37.37s.17.37.37.37h1.51c.21,0,.37-.17.37-.37Zm0,1.72c0-.21-.17-.37-.37-.37h-1.51c-.21,0-.37.17-.37.37s.17.37.37.37h1.51c.21,0,.37-.17.37-.37Zm0,1.72c0-.21-.17-.37-.37-.37h-1.51c-.21,0-.37.17-.37.37s.17.37.37.37h1.51c.21,0,.37-.17.37-.37Zm0,1.72c0-.21-.17-.37-.37-.37h-1.51c-.21,0-.37.17-.37.37s.17.37.37.37h1.51c.21,0,.37-.17.37-.37Zm0,1.72c0-.21-.17-.37-.37-.37h-1.51c-.21,0-.37.17-.37.37s.17.37.37.37h1.51c.21,0,.37-.17.37-.37Zm0,1.72c0-.21-.17-.37-.37-.37h-1.51c-.21,0-.37.17-.37.37s.17.37.37.37h1.51c.21,0,.37-.17.37-.37Zm0,1.72c0-.21-.17-.37-.37-.37h-1.51c-.21,0-.37.17-.37.37s.17.37.37.37h1.51c.21,0,.37-.17.37-.37Zm5.63-12.05c0-.21-.17-.37-.37-.37h-3.95c-.21,0-.37.17-.37.37s.17.37.37.37h3.95c.21,0,.37-.17.37-.37Zm0,1.72c0-.21-.17-.37-.37-.37h-3.95c-.21,0-.37.17-.37.37s.17.37.37.37h3.95c.21,0,.37-.17.37-.37Zm0,1.72c0-.21-.17-.37-.37-.37h-3.95c-.21,0-.37.17-.37.37s.17.37.37.37h3.95c.21,0,.37-.17.37-.37Zm0,1.72c0-.21-.17-.37-.37-.37h-3.95c-.21,0-.37.17-.37.37s.17.37.37.37h3.95c.21,0,.37-.17.37-.37Zm0,1.72c0-.21-.17-.37-.37-.37h-3.95c-.21,0-.37.17-.37.37s.17.37.37.37h3.95c.21,0,.37-.17.37-.37Zm4.73,1.72c0-.21-.17-.37-.37-.37h-3.95c-.21,0-.37.17-.37.37s.17.37.37.37h3.95c.21,0,.37-.17.37-.37Zm0,1.72c0-.21-.17-.37-.37-.37h-3.95c-.21,0-.37.17-.37.37s.17.37.37.37h3.95c.21,0,.37-.17.37-.37Zm0,1.72c0-.21-.17-.37-.37-.37h-3.95c-.21,0-.37.17-.37.37s.17.37.37.37h3.95c.21,0,.37-.17.37-.37Zm-2.99-12.05c0-.24-.19-.43-.43-.43s-.43.19-.43.43.19.43.43.43.43-.19.43-.43Zm1.29,0c0-.24-.19-.43-.43-.43s-.43.19-.43.43.19.43.43.43.43-.19.43-.43Zm1.29,0c0-.24-.19-.43-.43-.43s-.43.19-.43.43.19.43.43.43.43-.19.43-.43Zm1.29,0c0-.24-.19-.43-.43-.43s-.43.19-.43.43.19.43.43.43.43-.19.43-.43Zm1.29,0c0-.24-.19-.43-.43-.43s-.43.19-.43.43.19.43.43.43.43-.19.43-.43Zm1.29,0c0-.24-.19-.43-.43-.43s-.43.19-.43.43.19.43.43.43.43-.19.43-.43Zm-6.45,3.44c0-.24-.19-.43-.43-.43s-.43.19-.43.43.19.43.43.43.43-.19.43-.43Zm1.29,0c0-.24-.19-.43-.43-.43s-.43.19-.43.43.19.43.43.43.43-.19.43-.43Zm1.29,0c0-.24-.19-.43-.43-.43s-.43.19-.43.43.19.43.43.43.43-.19.43-.43Zm1.29,0c0-.24-.19-.43-.43-.43s-.43.19-.43.43.19.43.43.43.43-.19.43-.43Zm1.29,0c0-.24-.19-.43-.43-.43s-.43.19-.43.43.19.43.43.43.43-.19.43-.43Zm1.29,0c0-.24-.19-.43-.43-.43s-.43.19-.43.43.19.43.43.43.43-.19.43-.43Zm-2.04,4.95c0-.24-.19-.43-.43-.43s-.43.19-.43.43.19.43.43.43.43-.19.43-.43Zm1.29,0c0-.24-.19-.43-.43-.43s-.43.19-.43.43.19.43.43.43.43-.19.43-.43Zm1.29,0c0-.24-.19-.43-.43-.43s-.43.19-.43.43.19.43.43.43.43-.19.43-.43Zm1.29,0c0-.24-.19-.43-.43-.43s-.43.19-.43.43.19.43.43.43.43-.19.43-.43Zm1.29,0c0-.24-.19-.43-.43-.43s-.43.19-.43.43.19.43.43.43.43-.19.43-.43Zm1.29,0c0-.24-.19-.43-.43-.43s-.43.19-.43.43.19.43.43.43.43-.19.43-.43Zm-6.45,3.55c0-.24-.19-.43-.43-.43s-.43.19-.43.43.19.43.43.43.43-.19.43-.43Zm1.29,0c0-.24-.19-.43-.43-.43s-.43.19-.43.43.19.43.43.43.43-.19.43-.43Zm1.29,0c0-.24-.19-.43-.43-.43s-.43.19-.43.43.19.43.43.43.43-.19.43-.43Zm1.29,0c0-.24-.19-.43-.43-.43s-.43.19-.43.43.19.43.43.43.43-.19.43-.43Zm1.29,0c0-.24-.19-.43-.43-.43s-.43.19-.43.43.19.43.43.43.43-.19.43-.43Zm1.29,0c0-.24-.19-.43-.43-.43s-.43.19-.43.43.19.43.43.43.43-.19.43-.43Z"/>
          </g>
        </g>
        <g>
          <g>
            <path class="cls-1" d="m159.41,162.02s-6.28-14.65-11.77-14.65-5.23,12.29-1.83,18.83c3.4,6.54,10.72,9.15,12.82,5.23"/>
            <g class="cls-16">
              <path class="cls-12" d="m159.41,162.02s-6.28-14.65-11.77-14.65-5.23,12.29-1.83,18.83c3.4,6.54,10.72,9.15,12.82,5.23"/>
              <path class="cls-2" d="m159.41,162.02s-6.28-14.65-11.77-14.65-5.23,12.29-1.83,18.83c3.4,6.54,10.72,9.15,12.82,5.23"/>
            </g>
            <path class="cls-10" d="m159.41,162.02s-6.28-14.65-11.77-14.65-5.23,12.29-1.83,18.83c3.4,6.54,10.72,9.15,12.82,5.23"/>
          </g>
          <path class="cls-10" d="m145.81,156.35s-.8-6.37,2.23-5.26,6.53,11.15,6.53,11.15c0,0-2.55-2.71-2.23-.16.32,2.55,2.55,2.71,2.55,2.71"/>
        </g>
      </g>
    </g>
  </g>
  <g id="Device">
    <g>
      <polygon class="cls-11" points="369.19 207.44 245.21 207.44 224.05 292.54 348.02 292.54 369.19 207.44"/>
      <g>
        <rect class="cls-11" x="161.84" y="292.54" width="184.88" height="6.05"/>
        <rect class="cls-9" x="224.05" y="292.54" width="123.98" height="6.05"/>
        <polygon class="cls-9" points="370.56 207.44 246.59 207.44 225.42 292.54 349.39 292.54 370.56 207.44"/>
        <g>
          <ellipse class="cls-15" cx="297.28" cy="251.61" rx="17.68" ry="17.51"/>
          <g>
            <path class="cls-1" d="m282.91,254.3c-.37-.17-.64-.46-.8-.87-.16-.41-.15-.84.02-1.28.17-.45.52-.78,1.03-1l7.49-3.01c.25-.1.51,0,.78.33.27.32.42.67.43,1.04.01.37-.16.66-.51.86l-6.27,2.44,6.29,2.53c.27.18.4.46.4.82,0,.36-.12.71-.36,1.04-.24.33-.48.44-.73.33l-7.78-3.22Z"/>
            <path class="cls-1" d="m294.6,258.5c-.21-.17-.32-.4-.32-.68,0-.15.08-.5.24-1.07l4.15-12.03c.26-.9.63-1.35,1.11-1.35.28,0,.52.09.71.26.2.17.29.42.29.75,0,.23-.07.56-.22,1l-4.36,12.69c-.14.46-.45.68-.91.68-.26,0-.5-.08-.71-.25Z"/>
            <path class="cls-1" d="m302.77,257.2c-.24-.33-.36-.67-.36-1.04,0-.36.13-.64.4-.82l6.29-2.53-6.27-2.44c-.35-.21-.52-.5-.51-.86.01-.37.16-.71.43-1.04.27-.32.53-.43.78-.33l7.49,3.01c.39.17.69.41.88.72.2.31.29.63.28.94-.01.31-.09.61-.25.89-.16.28-.38.48-.66.61l-7.78,3.22c-.25.1-.49,0-.73-.33Z"/>
          </g>
        </g>
      </g>
    </g>
  </g>
  <g id="Table">
    <rect class="cls-4" x="15.34" y="297.25" width="401.33" height="6"/>
  </g>
</svg>